# This file uses centimeters as units for non-parametric coordinates.

mtllib Outsidebend_LP.mtl
g default
v 0.189550 0.000000 -2.979100
v 0.513744 0.000000 -2.596211
v 0.842748 0.000000 -2.218114
v 0.191984 1.000000 -2.981532
v 0.516723 1.000000 -2.599190
v 0.842748 0.600000 -2.218111
v 3.000000 1.000000 -3.999979
v 3.000000 1.000000 -3.500171
v 3.000000 0.600000 -3.000256
v 3.000000 0.000000 -4.000021
v 3.000000 0.000000 -3.500216
v 3.000000 0.000000 -3.000261
v -1.000000 0.000000 0.000000
v -0.500000 0.000000 0.000002
v 0.000000 0.000000 -0.000021
v -1.000000 1.000000 0.000000
v -0.500000 1.000000 0.000001
v 0.000000 0.600000 -0.000021
v -0.672542 1.000000 -1.651816
v -0.672821 0.000000 -1.651541
v -0.220457 0.000000 -1.450702
v 0.226164 0.000000 -1.244100
v 0.226164 0.600000 -1.244098
v -0.219655 1.000000 -1.451499
v -0.916998 1.000000 -0.842735
v -0.916998 0.000000 -0.842735
v -0.426605 0.000000 -0.745241
v 0.059877 0.000000 -0.643866
v 0.059877 0.600000 -0.643865
v -0.426605 1.000000 -0.745237
v -0.979199 1.000000 -0.423407
v -0.979199 0.000000 -0.423406
v -0.481607 0.000000 -0.374405
v 0.015985 0.000000 -0.325465
v 0.015985 0.600000 -0.325464
v -0.481607 1.000000 -0.374404
v -0.813994 0.000000 -1.253980
v -0.813994 1.000000 -1.253977
v -0.337753 1.000000 -1.106687
v 0.130342 0.600000 -0.951245
v 0.130342 0.000000 -0.951246
v -0.338111 0.000000 -1.106334
v -0.297383 0.000000 -2.374729
v -0.296109 1.000000 -2.376000
v 0.098392 1.000000 -2.077034
v 0.489734 0.600000 -1.774885
v 0.489734 0.000000 -1.774888
v 0.096561 0.000000 -2.075205
v -0.499137 1.000000 -2.027252
v -0.499887 0.000000 -2.026506
v -0.075099 0.000000 -1.774702
v 0.346300 0.000000 -1.519485
v 0.346300 0.600000 -1.519483
v -0.073803 1.000000 -1.775993
v -0.067057 0.000000 -2.693058
v -0.065157 1.000000 -2.694955
v 0.295624 1.000000 -2.352071
v 0.655511 0.600000 -2.008271
v 0.655511 0.000000 -2.008274
v 0.293226 0.000000 -2.349676
v 1.441783 1.000000 -3.766171
v 1.441783 0.000000 -3.766207
v 1.614952 0.000000 -3.286195
v 1.789831 0.000000 -2.807781
v 1.789831 0.600000 -2.807776
v 1.616256 1.000000 -3.287471
v 0.775977 1.000000 -3.448112
v 0.775977 0.000000 -3.448141
v 1.022369 0.000000 -3.001026
v 1.278348 0.000000 -2.563479
v 1.278348 0.600000 -2.563475
v 1.026487 1.000000 -3.005146
v 1.098227 0.000000 -3.624669
v 1.098227 1.000000 -3.624637
v 1.313289 1.000000 -3.163131
v 1.525073 0.600000 -2.698240
v 1.525073 0.000000 -2.698244
v 1.308654 0.000000 -3.158493
v 0.474145 1.000000 -3.234283
v 0.471110 0.000000 -3.231248
v 0.757098 0.000000 -2.813549
v 1.050626 0.000000 -2.403374
v 1.050626 0.600000 -2.403370
v 0.760657 1.000000 -2.817109
v 2.184028 0.000000 -3.943815
v 2.184028 1.000000 -3.943775
v 2.275868 1.000000 -3.447843
v 2.368349 0.600000 -2.952452
v 2.368349 0.000000 -2.952457
v 2.275868 0.000000 -3.447886
v 1.803909 1.000000 -3.871917
v 1.803909 0.000000 -3.871955
v 1.937080 0.000000 -3.381649
v 2.071429 0.000000 -2.892392
v 2.071429 0.600000 -2.892387
v 1.937080 1.000000 -3.381608
v 2.583447 0.000000 -3.986080
v 2.583447 1.000000 -3.986039
v 2.630969 1.000000 -3.487146
v 2.678670 0.600000 -2.988327
v 2.678670 0.000000 -2.988332
v 2.630969 0.000000 -3.487190
vt 0.305231 0.994665
vt 0.223946 0.994343
vt 0.224188 0.933379
vt 0.305473 0.933701
vt 0.222516 0.994506
vt 0.120091 0.994506
vt 0.120091 0.933541
vt 0.222516 0.933541
vt 0.812135 0.675760
vt 0.730850 0.675419
vt 0.731532 0.512849
vt 0.812817 0.513190
vt 0.649837 0.610050
vt 0.650247 0.512508
vt 0.473824 0.933541
vt 0.555110 0.933541
vt 0.555110 0.994506
vt 0.473824 0.994506
vt 0.636396 0.933541
vt 0.636396 0.994506
vt 0.019644 0.994506
vt 0.019644 0.933541
vt 0.307977 0.933294
vt 0.470548 0.933787
vt 0.470363 0.994751
vt 0.307792 0.994258
vt 0.816792 0.009806
vt 0.898078 0.009806
vt 0.898078 0.172378
vt 0.816792 0.172378
vt 0.979364 0.009806
vt 0.979364 0.107349
vt 0.305231 0.491624
vt 0.223946 0.491302
vt 0.224188 0.430338
vt 0.305473 0.430660
vt 0.222516 0.491465
vt 0.120091 0.491465
vt 0.120091 0.430500
vt 0.222516 0.430500
vt 0.473824 0.430500
vt 0.555110 0.430500
vt 0.555110 0.491465
vt 0.473824 0.491465
vt 0.636396 0.430500
vt 0.636396 0.491465
vt 0.019644 0.491465
vt 0.019644 0.430500
vt 0.307977 0.430253
vt 0.470548 0.430746
vt 0.470363 0.491711
vt 0.307792 0.491217
vt 0.471844 0.003998
vt 0.471659 0.064962
vt 0.309088 0.064468
vt 0.309273 0.003504
vt 0.473824 0.003750
vt 0.555110 0.003750
vt 0.555110 0.064714
vt 0.473824 0.064714
vt 0.636396 0.003750
vt 0.636396 0.064714
vt 0.120091 0.064714
vt 0.019644 0.064714
vt 0.019644 0.003750
vt 0.120091 0.003750
vt 0.222516 0.064714
vt 0.222516 0.003750
vt 0.306924 0.064877
vt 0.225638 0.064554
vt 0.225880 0.003590
vt 0.307165 0.003913
vt 0.308533 0.247360
vt 0.471103 0.247854
vt 0.470918 0.308818
vt 0.308347 0.308325
vt 0.473824 0.247607
vt 0.555110 0.247607
vt 0.555110 0.308572
vt 0.473824 0.308572
vt 0.636396 0.247607
vt 0.636396 0.308572
vt 0.120091 0.308572
vt 0.019644 0.308572
vt 0.019644 0.247607
vt 0.120091 0.247607
vt 0.222516 0.308572
vt 0.222516 0.247607
vt 0.305957 0.308732
vt 0.224671 0.308410
vt 0.224913 0.247446
vt 0.306198 0.247768
vt 0.308162 0.369289
vt 0.470733 0.369782
vt 0.473824 0.369536
vt 0.555110 0.369536
vt 0.636396 0.369536
vt 0.019644 0.369536
vt 0.120091 0.369536
vt 0.222516 0.369536
vt 0.224430 0.369374
vt 0.305715 0.369696
vt 0.308718 0.186396
vt 0.471289 0.186890
vt 0.225155 0.186482
vt 0.306440 0.186804
vt 0.120091 0.186643
vt 0.222516 0.186643
vt 0.019644 0.186643
vt 0.555110 0.186643
vt 0.636396 0.186643
vt 0.473824 0.186643
vt 0.308903 0.125432
vt 0.471474 0.125926
vt 0.473824 0.125678
vt 0.555110 0.125678
vt 0.636396 0.125678
vt 0.019644 0.125678
vt 0.120091 0.125678
vt 0.222516 0.125678
vt 0.225397 0.125518
vt 0.306682 0.125840
vt 0.471844 0.507038
vt 0.471659 0.568003
vt 0.309088 0.567509
vt 0.309273 0.506545
vt 0.473824 0.506791
vt 0.555110 0.506791
vt 0.555110 0.567755
vt 0.473824 0.567755
vt 0.636396 0.506791
vt 0.636396 0.567755
vt 0.120091 0.567755
vt 0.019644 0.567755
vt 0.019644 0.506791
vt 0.120091 0.506791
vt 0.222516 0.567755
vt 0.222516 0.506791
vt 0.306924 0.567917
vt 0.225638 0.567595
vt 0.225880 0.506631
vt 0.307165 0.506954
vt 0.308533 0.750401
vt 0.471103 0.750895
vt 0.470918 0.811859
vt 0.308347 0.811365
vt 0.473824 0.750648
vt 0.555110 0.750648
vt 0.555110 0.811613
vt 0.473824 0.811613
vt 0.636396 0.750648
vt 0.636396 0.811613
vt 0.120091 0.811613
vt 0.019644 0.811613
vt 0.019644 0.750648
vt 0.120091 0.750648
vt 0.222516 0.811613
vt 0.222516 0.750648
vt 0.305957 0.811773
vt 0.224671 0.811451
vt 0.224913 0.750487
vt 0.306198 0.750809
vt 0.470733 0.872823
vt 0.308162 0.872330
vt 0.305715 0.872737
vt 0.224430 0.872415
vt 0.222516 0.872577
vt 0.120091 0.872577
vt 0.019644 0.872577
vt 0.636396 0.872577
vt 0.555110 0.872577
vt 0.473824 0.872577
vt 0.308718 0.689437
vt 0.471289 0.689931
vt 0.225155 0.689523
vt 0.306440 0.689845
vt 0.120091 0.689684
vt 0.222516 0.689684
vt 0.019644 0.689684
vt 0.555110 0.689684
vt 0.636396 0.689684
vt 0.473824 0.689684
vt 0.308903 0.628473
vt 0.471474 0.628967
vt 0.473824 0.628719
vt 0.555110 0.628719
vt 0.636396 0.628719
vt 0.019644 0.628719
vt 0.120091 0.628719
vt 0.222516 0.628719
vt 0.225397 0.628559
vt 0.306682 0.628881
vn 0.000000 1.000000 0.000000
vn 0.232941 0.936801 0.261040
vn 0.207443 0.942514 0.261982
vn 0.000000 1.000000 0.000000
vn 0.232941 0.936801 0.261040
vn 0.415126 0.781831 0.465201
vn 0.387400 0.783519 0.485819
vn 0.207443 0.942514 0.261982
vn 1.000000 0.000000 0.000000
vn 1.000000 0.000000 0.000000
vn 1.000000 0.000000 0.000000
vn 1.000000 0.000000 0.000000
vn 1.000000 0.000000 0.000000
vn 1.000000 0.000000 0.000000
vn 1.000000 0.000000 0.000000
vn 1.000000 0.000000 0.000000
vn 0.000000 -1.000000 0.000000
vn 0.000000 -1.000000 0.000000
vn 0.000000 -1.000000 0.000000
vn 0.000000 -1.000000 0.000000
vn 0.000000 -1.000000 0.000000
vn 0.000000 -1.000000 0.000000
vn 0.000000 -1.000000 0.000000
vn 0.000000 -1.000000 0.000000
vn 0.665324 -0.000004 0.746554
vn 0.621271 -0.000005 0.783596
vn 0.621272 -0.000005 0.783595
vn 0.665324 -0.000004 0.746554
vn -0.624285 -0.000280 -0.781197
vn -0.624524 -0.000279 -0.781005
vn -0.667174 -0.000212 -0.744902
vn -0.667174 -0.000212 -0.744902
vn -0.000003 0.000000 1.000000
vn 0.000018 0.000000 1.000000
vn 0.000012 0.000000 1.000000
vn -0.000003 0.000000 1.000000
vn 0.000018 0.000000 1.000000
vn 0.000045 0.000000 1.000000
vn 0.000045 0.000000 1.000000
vn 0.000012 0.000000 1.000000
vn 0.000000 1.000000 0.000000
vn 0.341008 0.939911 0.016751
vn 0.339244 0.940135 0.032547
vn 0.000000 1.000000 0.000000
vn 0.341008 0.939911 0.016751
vn 0.624403 0.780500 0.030672
vn 0.622523 0.780325 0.059655
vn 0.339244 0.940135 0.032547
vn 0.000000 -1.000000 0.000000
vn 0.000000 -1.000000 0.000000
vn 0.000000 -1.000000 0.000000
vn 0.000000 -1.000000 0.000000
vn 0.000000 -1.000000 0.000000
vn 0.000000 -1.000000 0.000000
vn 0.000000 -1.000000 0.000000
vn 0.000000 -1.000000 0.000000
vn 0.998796 -0.000000 0.049060
vn 0.995703 -0.000000 0.092599
vn 0.995703 -0.000000 0.092599
vn 0.998796 -0.000000 0.049060
vn -0.995185 0.000000 -0.098017
vn -0.995185 0.000000 -0.098017
vn -0.998795 0.000000 -0.049068
vn -0.998795 0.000000 -0.049068
vn -0.744334 0.000167 -0.667808
vn -0.778689 0.000263 -0.627410
vn -0.778578 0.000263 -0.627548
vn -0.744334 0.000167 -0.667808
vn 0.000000 -1.000000 0.000000
vn 0.000000 -1.000000 0.000000
vn 0.000000 -1.000000 0.000000
vn 0.000000 -1.000000 0.000000
vn 0.000000 -1.000000 0.000000
vn 0.000000 -1.000000 0.000000
vn 0.000000 -1.000000 0.000000
vn 0.000000 -1.000000 0.000000
vn 0.782217 -0.000003 0.623007
vn 0.782216 -0.000003 0.623007
vn 0.746150 -0.000003 0.665778
vn 0.746150 -0.000003 0.665778
vn 0.263479 0.941180 0.211563
vn 0.491393 0.778372 0.390730
vn 0.467389 0.779173 0.417657
vn 0.240449 0.946582 0.214864
vn 0.000000 1.000000 0.000000
vn 0.263479 0.941180 0.211563
vn 0.240449 0.946582 0.214864
vn 0.000000 1.000000 0.000000
vn -0.926257 0.000169 -0.376892
vn -0.926265 0.000169 -0.376873
vn -0.957293 0.000043 -0.289121
vn -0.957293 0.000043 -0.289120
vn 0.000000 -1.000000 0.000000
vn 0.000000 -1.000000 0.000000
vn 0.000000 -1.000000 0.000000
vn 0.000000 -1.000000 0.000000
vn 0.000000 -1.000000 0.000000
vn 0.000000 -1.000000 0.000000
vn 0.000000 -1.000000 0.000000
vn 0.000000 -1.000000 0.000000
vn 0.963701 -0.000000 0.266982
vn 0.963701 -0.000000 0.266982
vn 0.934769 -0.000001 0.355257
vn 0.934769 -0.000001 0.355257
vn 0.327950 0.940010 0.093971
vn 0.605977 0.776574 0.172406
vn 0.589288 0.775254 0.227424
vn 0.317915 0.940002 0.123798
vn 0.000000 1.000000 0.000000
vn 0.327950 0.940010 0.093971
vn 0.317915 0.940002 0.123798
vn 0.000000 1.000000 0.000000
vn -0.980787 0.000000 -0.195083
vn -0.980787 0.000000 -0.195083
vn -0.995185 0.000000 -0.098017
vn -0.995185 0.000000 -0.098017
vn 0.000000 -1.000000 0.000000
vn 0.000000 -1.000000 0.000000
vn 0.000000 -1.000000 0.000000
vn 0.000000 -1.000000 0.000000
vn 0.000000 -1.000000 0.000000
vn 0.000000 -1.000000 0.000000
vn 0.000000 -1.000000 0.000000
vn 0.000000 -1.000000 0.000000
vn 0.995703 -0.000000 0.092599
vn 0.995703 -0.000000 0.092599
vn 0.983709 -0.000000 0.179766
vn 0.983709 -0.000000 0.179766
vn 0.339244 0.940135 0.032547
vn 0.622523 0.780325 0.059655
vn 0.616437 0.778684 0.116861
vn 0.334786 0.940136 0.063744
vn 0.000000 1.000000 0.000000
vn 0.339244 0.940135 0.032547
vn 0.334786 0.940136 0.063744
vn 0.000000 1.000000 0.000000
vn -0.957293 0.000043 -0.289120
vn -0.957293 0.000043 -0.289121
vn -0.980787 0.000000 -0.195083
vn -0.980787 0.000000 -0.195083
vn 0.000000 1.000000 0.000000
vn 0.334786 0.940136 0.063744
vn 0.327950 0.940010 0.093971
vn 0.000000 1.000000 0.000000
vn 0.334786 0.940136 0.063744
vn 0.616437 0.778684 0.116861
vn 0.605977 0.776574 0.172406
vn 0.327950 0.940010 0.093971
vn 0.983709 -0.000000 0.179766
vn 0.983709 -0.000000 0.179766
vn 0.963701 -0.000000 0.266982
vn 0.963701 -0.000000 0.266982
vn 0.000000 -1.000000 0.000000
vn 0.000000 -1.000000 0.000000
vn 0.000000 -1.000000 0.000000
vn 0.000000 -1.000000 0.000000
vn 0.000000 -1.000000 0.000000
vn 0.000000 -1.000000 0.000000
vn 0.000000 -1.000000 0.000000
vn 0.000000 -1.000000 0.000000
vn -0.887394 0.000310 -0.461011
vn -0.887422 0.000310 -0.460958
vn -0.926265 0.000169 -0.376873
vn -0.926257 0.000169 -0.376892
vn 0.000000 1.000000 0.000000
vn 0.317915 0.940002 0.123798
vn 0.304338 0.940064 0.153814
vn 0.000000 1.000000 0.000000
vn 0.317915 0.940002 0.123798
vn 0.589288 0.775254 0.227424
vn 0.564940 0.775191 0.282704
vn 0.304338 0.940064 0.153814
vn 0.934769 -0.000001 0.355257
vn 0.934769 -0.000001 0.355257
vn 0.895655 -0.000001 0.444750
vn 0.895655 -0.000001 0.444750
vn 0.000000 -1.000000 0.000000
vn 0.000000 -1.000000 0.000000
vn 0.000000 -1.000000 0.000000
vn 0.000000 -1.000000 0.000000
vn 0.000000 -1.000000 0.000000
vn 0.000000 -1.000000 0.000000
vn 0.000000 -1.000000 0.000000
vn 0.000000 -1.000000 0.000000
vn -0.838544 0.000363 -0.544834
vn -0.838605 0.000363 -0.544740
vn -0.887422 0.000310 -0.460958
vn -0.887394 0.000310 -0.461011
vn 0.000000 -1.000000 0.000000
vn 0.000000 -1.000000 0.000000
vn 0.000000 -1.000000 0.000000
vn 0.000000 -1.000000 0.000000
vn 0.000000 -1.000000 0.000000
vn 0.000000 -1.000000 0.000000
vn 0.000000 -1.000000 0.000000
vn 0.000000 -1.000000 0.000000
vn 0.895655 -0.000001 0.444750
vn 0.895655 -0.000001 0.444750
vn 0.845097 -0.000002 0.534613
vn 0.845097 -0.000002 0.534613
vn 0.304338 0.940064 0.153814
vn 0.564940 0.775191 0.282704
vn 0.532357 0.776318 0.337530
vn 0.286165 0.940485 0.183295
vn 0.000000 1.000000 0.000000
vn 0.304338 0.940064 0.153814
vn 0.286165 0.940485 0.183295
vn 0.000000 1.000000 0.000000
vn -0.778578 0.000263 -0.627548
vn -0.778689 0.000263 -0.627410
vn -0.838605 0.000363 -0.544740
vn -0.838544 0.000363 -0.544834
vn 0.000000 1.000000 0.000000
vn 0.286165 0.940485 0.183295
vn 0.263479 0.941180 0.211563
vn 0.000000 1.000000 0.000000
vn 0.286165 0.940485 0.183295
vn 0.532357 0.776318 0.337530
vn 0.491393 0.778372 0.390730
vn 0.263479 0.941180 0.211563
vn 0.845097 -0.000002 0.534613
vn 0.845097 -0.000002 0.534613
vn 0.782216 -0.000003 0.623007
vn 0.782217 -0.000003 0.623007
vn 0.000000 -1.000000 0.000000
vn 0.000000 -1.000000 0.000000
vn 0.000000 -1.000000 0.000000
vn 0.000000 -1.000000 0.000000
vn 0.000000 -1.000000 0.000000
vn 0.000000 -1.000000 0.000000
vn 0.000000 -1.000000 0.000000
vn 0.000000 -1.000000 0.000000
vn -0.033448 0.000042 -0.999440
vn -0.068718 0.000041 -0.997636
vn -0.068719 0.000041 -0.997636
vn -0.033448 0.000042 -0.999440
vn 0.000000 -1.000000 0.000000
vn 0.000000 -1.000000 0.000000
vn 0.000000 -1.000000 0.000000
vn 0.000000 -1.000000 0.000000
vn 0.000000 -1.000000 0.000000
vn 0.000000 -1.000000 0.000000
vn 0.000000 -1.000000 0.000000
vn 0.000000 -1.000000 0.000000
vn 0.075465 -0.000009 0.997148
vn 0.075465 -0.000009 0.997148
vn 0.037100 -0.000009 0.999312
vn 0.037100 -0.000009 0.999312
vn 0.025414 0.939331 0.342070
vn 0.045721 0.781604 0.622097
vn 0.022570 0.780810 0.624361
vn 0.012427 0.938971 0.343771
vn 0.000000 1.000000 0.000000
vn 0.025414 0.939331 0.342070
vn 0.012427 0.938971 0.343771
vn 0.000000 1.000000 0.000000
vn -0.330702 0.000033 -0.943735
vn -0.330701 0.000033 -0.943736
vn -0.431051 0.000029 -0.902328
vn -0.431051 0.000029 -0.902328
vn 0.000000 -1.000000 0.000000
vn 0.000000 -1.000000 0.000000
vn 0.000000 -1.000000 0.000000
vn 0.000000 -1.000000 0.000000
vn 0.000000 -1.000000 0.000000
vn 0.000000 -1.000000 0.000000
vn 0.000000 -1.000000 0.000000
vn 0.000000 -1.000000 0.000000
vn 0.430995 -0.000006 0.902354
vn 0.430995 -0.000006 0.902354
vn 0.334838 -0.000007 0.942276
vn 0.334838 -0.000007 0.942276
vn 0.143810 0.942670 0.301150
vn 0.266436 0.787017 0.556432
vn 0.205205 0.786745 0.582171
vn 0.111652 0.942043 0.316369
vn 0.000000 1.000000 0.000000
vn 0.143810 0.942670 0.301150
vn 0.111652 0.942043 0.316369
vn 0.000000 1.000000 0.000000
vn -0.431051 0.000029 -0.902328
vn -0.431051 0.000029 -0.902328
vn -0.530863 -0.000162 -0.847457
vn -0.530864 -0.000162 -0.847457
vn 0.000000 1.000000 0.000000
vn 0.176469 0.942578 0.283560
vn 0.143810 0.942670 0.301150
vn 0.000000 1.000000 0.000000
vn 0.176469 0.942578 0.283560
vn 0.328021 0.785711 0.524461
vn 0.266436 0.787017 0.556432
vn 0.143810 0.942670 0.301150
vn 0.527861 -0.000005 0.849331
vn 0.527860 -0.000005 0.849331
vn 0.430995 -0.000006 0.902354
vn 0.430995 -0.000006 0.902354
vn 0.000000 -1.000000 0.000000
vn 0.000000 -1.000000 0.000000
vn 0.000000 -1.000000 0.000000
vn 0.000000 -1.000000 0.000000
vn 0.000000 -1.000000 0.000000
vn 0.000000 -1.000000 0.000000
vn 0.000000 -1.000000 0.000000
vn 0.000000 -1.000000 0.000000
vn -0.530864 -0.000162 -0.847457
vn -0.530863 -0.000162 -0.847457
vn -0.624524 -0.000279 -0.781005
vn -0.624285 -0.000280 -0.781197
vn 0.000000 -1.000000 0.000000
vn 0.000000 -1.000000 0.000000
vn 0.000000 -1.000000 0.000000
vn 0.000000 -1.000000 0.000000
vn 0.000000 -1.000000 0.000000
vn 0.000000 -1.000000 0.000000
vn 0.000000 -1.000000 0.000000
vn 0.000000 -1.000000 0.000000
vn 0.621272 -0.000005 0.783595
vn 0.621271 -0.000005 0.783596
vn 0.527860 -0.000005 0.849331
vn 0.527861 -0.000005 0.849331
vn 0.207443 0.942514 0.261982
vn 0.387400 0.783519 0.485819
vn 0.328021 0.785711 0.524461
vn 0.176469 0.942578 0.283560
vn 0.000000 1.000000 0.000000
vn 0.207443 0.942514 0.261982
vn 0.176469 0.942578 0.283560
vn 0.000000 1.000000 0.000000
vn -0.232712 0.000037 -0.972546
vn -0.232712 0.000037 -0.972546
vn -0.330701 0.000033 -0.943736
vn -0.330702 0.000033 -0.943735
vn 0.000000 1.000000 0.000000
vn 0.111652 0.942043 0.316369
vn 0.081195 0.940975 0.328594
vn 0.000000 1.000000 0.000000
vn 0.111652 0.942043 0.316369
vn 0.205205 0.786745 0.582171
vn 0.147853 0.785141 0.601409
vn 0.081195 0.940975 0.328594
vn 0.334838 -0.000007 0.942276
vn 0.334838 -0.000007 0.942276
vn 0.242609 -0.000008 0.970124
vn 0.242609 -0.000008 0.970124
vn 0.000000 -1.000000 0.000000
vn 0.000000 -1.000000 0.000000
vn 0.000000 -1.000000 0.000000
vn 0.000000 -1.000000 0.000000
vn 0.000000 -1.000000 0.000000
vn 0.000000 -1.000000 0.000000
vn 0.000000 -1.000000 0.000000
vn 0.000000 -1.000000 0.000000
vn -0.144854 0.000039 -0.989453
vn -0.144854 0.000039 -0.989453
vn -0.232712 0.000037 -0.972546
vn -0.232712 0.000037 -0.972546
vn 0.000000 -1.000000 0.000000
vn 0.000000 -1.000000 0.000000
vn 0.000000 -1.000000 0.000000
vn 0.000000 -1.000000 0.000000
vn 0.000000 -1.000000 0.000000
vn 0.000000 -1.000000 0.000000
vn 0.000000 -1.000000 0.000000
vn 0.000000 -1.000000 0.000000
vn 0.242609 -0.000008 0.970124
vn 0.242609 -0.000008 0.970124
vn 0.156057 -0.000008 0.987748
vn 0.156057 -0.000008 0.987748
vn 0.081195 0.940975 0.328594
vn 0.147853 0.785141 0.601409
vn 0.094811 0.783165 0.614544
vn 0.052448 0.939990 0.337146
vn 0.000000 1.000000 0.000000
vn 0.081195 0.940975 0.328594
vn 0.052448 0.939990 0.337146
vn 0.000000 1.000000 0.000000
vn -0.068719 0.000041 -0.997636
vn -0.068718 0.000041 -0.997636
vn -0.144854 0.000039 -0.989453
vn -0.144854 0.000039 -0.989453
vn 0.000000 1.000000 0.000000
vn 0.052448 0.939990 0.337146
vn 0.025414 0.939331 0.342070
vn 0.000000 1.000000 0.000000
vn 0.052448 0.939990 0.337146
vn 0.094811 0.783165 0.614544
vn 0.045721 0.781604 0.622097
vn 0.025414 0.939331 0.342070
vn 0.156057 -0.000008 0.987748
vn 0.156057 -0.000008 0.987748
vn 0.075465 -0.000009 0.997148
vn 0.075465 -0.000009 0.997148
vn 0.000000 -1.000000 0.000000
vn 0.000000 -1.000000 0.000000
vn 0.000000 -1.000000 0.000000
vn 0.000000 -1.000000 0.000000
vn 0.000000 -1.000000 0.000000
vn 0.000000 -1.000000 0.000000
vn 0.000000 -1.000000 0.000000
vn 0.000000 -1.000000 0.000000
s off
g Outside_bend
usemtl initialShadingGroup
f 4/1/1 5/2/2 84/3/3 79/4/4
f 5/5/5 6/6/6 83/7/7 84/8/8
f 7/9/9 8/10/10 11/11/11 10/12/12
f 8/10/13 9/13/14 12/14/15 11/11/16
f 80/15/17 81/16/18 2/17/19 1/18/20
f 81/16/21 82/19/22 3/20/23 2/17/24
f 3/21/25 82/22/26 83/7/27 6/6/28
f 79/23/29 80/24/30 1/25/31 4/26/32
f 13/27/33 14/28/34 17/29/35 16/30/36
f 14/28/37 15/31/38 18/32/39 17/29/40
f 16/33/41 17/34/42 36/35/43 31/36/44
f 17/37/45 18/38/46 35/39/47 36/40/48
f 32/41/49 33/42/50 14/43/51 13/44/52
f 33/42/53 34/45/54 15/46/55 14/43/56
f 15/47/57 34/48/58 35/39/59 18/38/60
f 31/49/61 32/50/62 13/51/63 16/52/64
f 1/53/65 55/54/66 56/55/67 4/56/68
f 1/57/69 2/58/70 60/59/71 55/60/72
f 2/58/73 3/61/74 59/62/75 60/59/76
f 58/63/77 59/64/78 3/65/79 6/66/80
f 57/67/81 58/63/82 6/66/83 5/68/84
f 56/69/85 57/70/86 5/71/87 4/72/88
f 19/73/89 20/74/90 37/75/91 38/76/92
f 20/77/93 21/78/94 42/79/95 37/80/96
f 21/78/97 22/81/98 41/82/99 42/79/100
f 40/83/101 41/84/102 22/85/103 23/86/104
f 39/87/105 40/83/106 23/86/107 24/88/108
f 38/89/109 39/90/110 24/91/111 19/92/112
f 25/93/113 26/94/114 32/50/115 31/49/116
f 26/95/117 27/96/118 33/42/119 32/41/120
f 27/96/121 28/97/122 34/45/123 33/42/124
f 35/39/125 34/48/126 28/98/127 29/99/128
f 36/40/129 35/39/130 29/99/131 30/100/132
f 31/36/133 36/35/134 30/101/135 25/102/136
f 38/76/137 37/75/138 26/94/139 25/93/140
f 25/102/141 30/101/142 39/90/143 38/89/144
f 30/100/145 29/99/146 40/83/147 39/87/148
f 29/99/149 28/98/150 41/84/151 40/83/152
f 42/79/153 41/82/154 28/97/155 27/96/156
f 37/80/157 42/79/158 27/96/159 26/95/160
f 49/103/161 50/104/162 20/74/163 19/73/164
f 19/92/165 24/91/166 54/105/167 49/106/168
f 24/88/169 23/86/170 53/107/171 54/108/172
f 23/86/173 22/85/174 52/109/175 53/107/176
f 51/110/177 52/111/178 22/81/179 21/78/180
f 50/112/181 51/110/182 21/78/183 20/77/184
f 44/113/185 43/114/186 50/104/187 49/103/188
f 43/115/189 48/116/190 51/110/191 50/112/192
f 48/116/193 47/117/194 52/111/195 51/110/196
f 53/107/197 52/109/198 47/118/199 46/119/200
f 54/108/201 53/107/202 46/119/203 45/120/204
f 49/106/205 54/105/206 45/121/207 44/122/208
f 56/55/209 55/54/210 43/114/211 44/113/212
f 44/122/213 45/121/214 57/70/215 56/69/216
f 45/120/217 46/119/218 58/63/219 57/67/220
f 46/119/221 47/118/222 59/64/223 58/63/224
f 60/59/225 59/62/226 47/117/227 48/116/228
f 55/60/229 60/59/230 48/116/231 43/115/232
f 10/123/233 97/124/234 98/125/235 7/126/236
f 10/127/237 11/128/238 102/129/239 97/130/240
f 11/128/241 12/131/242 101/132/243 102/129/244
f 100/133/245 101/134/246 12/135/247 9/136/248
f 99/137/249 100/133/250 9/136/251 8/138/252
f 98/139/253 99/140/254 8/141/255 7/142/256
f 61/143/257 62/144/258 73/145/259 74/146/260
f 62/147/261 63/148/262 78/149/263 73/150/264
f 63/148/265 64/151/266 77/152/267 78/149/268
f 76/153/269 77/154/270 64/155/271 65/156/272
f 75/157/273 76/153/274 65/156/275 66/158/276
f 74/159/277 75/160/278 66/161/279 61/162/280
f 74/146/281 73/145/282 68/163/283 67/164/284
f 67/165/285 72/166/286 75/160/287 74/159/288
f 72/167/289 71/168/290 76/153/291 75/157/292
f 71/168/293 70/169/294 77/154/295 76/153/296
f 78/149/297 77/152/298 70/170/299 69/171/300
f 73/150/301 78/149/302 69/171/303 68/172/304
f 67/164/305 68/163/306 80/24/307 79/23/308
f 68/172/309 69/171/310 81/16/311 80/15/312
f 69/171/313 70/170/314 82/19/315 81/16/316
f 83/7/317 82/22/318 70/169/319 71/168/320
f 84/8/321 83/7/322 71/168/323 72/167/324
f 79/4/325 84/3/326 72/166/327 67/165/328
f 91/173/329 92/174/330 62/144/331 61/143/332
f 61/162/333 66/161/334 96/175/335 91/176/336
f 66/158/337 65/156/338 95/177/339 96/178/340
f 65/156/341 64/155/342 94/179/343 95/177/344
f 93/180/345 94/181/346 64/151/347 63/148/348
f 92/182/349 93/180/350 63/148/351 62/147/352
f 86/183/353 85/184/354 92/174/355 91/173/356
f 85/185/357 90/186/358 93/180/359 92/182/360
f 90/186/361 89/187/362 94/181/363 93/180/364
f 95/177/365 94/179/366 89/188/367 88/189/368
f 96/178/369 95/177/370 88/189/371 87/190/372
f 91/176/373 96/175/374 87/191/375 86/192/376
f 98/125/377 97/124/378 85/184/379 86/183/380
f 86/192/381 87/191/382 99/140/383 98/139/384
f 87/190/385 88/189/386 100/133/387 99/137/388
f 88/189/389 89/188/390 101/134/391 100/133/392
f 102/129/393 101/132/394 89/187/395 90/186/396
f 97/130/397 102/129/398 90/186/399 85/185/400
