# This file uses centimeters as units for non-parametric coordinates.

mtllib InsideBend_LP.mtl
g default
v 1.546816 0.000000 -1.506019
v 1.229947 0.000000 -1.896452
v 0.919408 0.000000 -2.293248
v 1.546816 1.000000 -1.506019
v 1.229947 1.000000 -1.896452
v 0.923302 0.600000 -2.297164
v 3.000000 1.000000 -2.000000
v 3.000000 1.000000 -2.497627
v 3.000000 0.600000 -3.000000
v 3.000000 0.000000 -2.000000
v 3.000000 0.000000 -2.497627
v 3.000000 0.000000 -3.000000
v 1.000000 0.000000 0.000000
v 0.500670 0.000000 0.000000
v 0.000000 0.000000 0.000000
v 1.000000 1.000000 0.000000
v 0.500670 1.000000 0.000000
v 0.000000 0.600000 0.000000
v 1.147734 1.000000 -0.857842
v 1.147734 0.000000 -0.857842
v 0.707382 0.000000 -1.070886
v 0.253318 0.000000 -1.270145
v 0.253318 0.600000 -1.270145
v 0.707382 1.000000 -1.070886
v 1.039912 1.000000 -0.447077
v 1.039912 0.000000 -0.447077
v 0.554837 0.000000 -0.549969
v 0.064445 0.000000 -0.647514
v 0.064445 0.600000 -0.647514
v 0.554837 1.000000 -0.549969
v 1.011193 1.000000 -0.226659
v 1.011193 0.000000 -0.226659
v 0.514244 0.000000 -0.276315
v 0.016652 0.000000 -0.325324
v 0.016652 0.600000 -0.325324
v 0.514244 1.000000 -0.276315
v 1.085673 0.000000 -0.658251
v 1.085673 1.000000 -0.658251
v 0.620965 1.000000 -0.817228
v 0.143587 0.600000 -0.963469
v 0.143587 0.000000 -0.963469
v 0.620965 0.000000 -0.817228
v 1.318096 0.000000 -1.214599
v 1.318096 1.000000 -1.214599
v 0.935089 1.000000 -1.525286
v 0.549210 0.600000 -1.833086
v 0.547543 0.000000 -1.831410
v 0.935089 0.000000 -1.525286
v 1.225405 1.000000 -1.043836
v 1.225405 0.000000 -1.043836
v 0.812444 0.000000 -1.307682
v 0.390000 0.000000 -1.561996
v 0.390686 0.600000 -1.562686
v 0.812444 1.000000 -1.307682
v 1.425343 0.000000 -1.368920
v 1.425343 1.000000 -1.368920
v 1.074462 1.000000 -1.721931
v 0.727138 0.600000 -2.078518
v 0.724391 0.000000 -2.075756
v 1.074462 0.000000 -1.721931
v 2.171354 1.000000 -1.880229
v 2.171354 0.000000 -1.880229
v 2.005387 0.000000 -2.367679
v 1.842025 0.000000 -2.857746
v 1.842025 0.600000 -2.857746
v 2.005387 1.000000 -2.367679
v 1.831662 1.000000 -1.727493
v 1.831662 0.000000 -1.727493
v 1.587915 0.000000 -2.177447
v 1.353404 0.000000 -2.636686
v 1.359895 0.600000 -2.643212
v 1.587915 1.000000 -2.177447
v 1.994754 0.000000 -1.812211
v 1.994754 1.000000 -1.812211
v 1.790104 1.000000 -2.284385
v 1.596796 0.600000 -2.767962
v 1.589810 0.000000 -2.760939
v 1.790104 0.000000 -2.284385
v 1.682304 1.000000 -1.625537
v 1.682304 0.000000 -1.625537
v 1.401163 0.000000 -2.048291
v 1.131806 0.000000 -2.482891
v 1.136877 0.600000 -2.487988
v 1.401163 1.000000 -2.048291
v 2.563174 0.000000 -1.968748
v 2.563174 1.000000 -1.968748
v 2.472898 1.000000 -2.466448
v 2.383884 0.600000 -2.965418
v 2.383884 0.000000 -2.965418
v 2.472898 0.000000 -2.466448
v 2.361057 1.000000 -1.932193
v 2.361057 0.000000 -1.932193
v 2.231375 0.000000 -2.426206
v 2.103967 0.000000 -2.922505
v 2.103967 0.600000 -2.922505
v 2.231375 1.000000 -2.426206
v 2.776651 0.000000 -1.990439
v 2.776651 1.000000 -1.990439
v 2.729522 1.000000 -2.489920
v 2.682748 0.600000 -2.989759
v 2.682748 0.000000 -2.989759
v 2.729522 0.000000 -2.489920
vt 0.019644 0.994506
vt 0.019644 0.506791
vt 0.120091 0.506791
vt 0.120091 0.994506
vt 0.222516 0.994506
vt 0.222516 0.506791
vt 0.471844 0.507038
vt 0.470363 0.994751
vt 0.307792 0.994258
vt 0.309273 0.506545
vt 0.305231 0.999568
vt 0.223946 0.999243
vt 0.225880 0.506706
vt 0.307165 0.507031
vt 0.473824 0.506791
vt 0.555110 0.506791
vt 0.555110 0.994506
vt 0.473824 0.994506
vt 0.636396 0.506791
vt 0.636396 0.994506
vt 0.812135 0.675760
vt 0.730850 0.675419
vt 0.731532 0.512849
vt 0.812817 0.513190
vt 0.649837 0.610050
vt 0.650247 0.512508
vt 0.816792 0.009806
vt 0.898078 0.009806
vt 0.898078 0.172378
vt 0.816792 0.172378
vt 0.979364 0.009806
vt 0.979364 0.107349
vt 0.305231 0.491550
vt 0.223946 0.491224
vt 0.225880 -0.001313
vt 0.307165 -0.000987
vt 0.222516 0.491465
vt 0.120091 0.491465
vt 0.120091 0.003750
vt 0.222516 0.003750
vt 0.473824 0.003750
vt 0.555110 0.003750
vt 0.555110 0.491465
vt 0.473824 0.491465
vt 0.636396 0.003750
vt 0.636396 0.491465
vt 0.019644 0.491465
vt 0.019644 0.003750
vt 0.471844 0.003998
vt 0.470363 0.491711
vt 0.307792 0.491217
vt 0.309273 0.003504
vt 0.308533 0.247360
vt 0.306198 0.245281
vt 0.471103 0.247854
vt 0.473824 0.247607
vt 0.555110 0.247607
vt 0.636396 0.247607
vt 0.019644 0.247607
vt 0.120091 0.247607
vt 0.224913 0.244956
vt 0.222516 0.247607
vt 0.308162 0.369289
vt 0.305715 0.368415
vt 0.470733 0.369782
vt 0.473824 0.369536
vt 0.555110 0.369536
vt 0.636396 0.369536
vt 0.019644 0.369536
vt 0.120091 0.369536
vt 0.224430 0.368090
vt 0.222516 0.369536
vt 0.307977 0.430253
vt 0.305473 0.429983
vt 0.470548 0.430746
vt 0.473824 0.430500
vt 0.555110 0.430500
vt 0.636396 0.430500
vt 0.019644 0.430500
vt 0.120091 0.430500
vt 0.224188 0.429657
vt 0.222516 0.430500
vt 0.470918 0.308818
vt 0.473824 0.308572
vt 0.308347 0.308325
vt 0.305957 0.306848
vt 0.224671 0.306523
vt 0.222516 0.308572
vt 0.120091 0.308572
vt 0.636396 0.308572
vt 0.019644 0.308572
vt 0.555110 0.308572
vt 0.471474 0.125926
vt 0.473824 0.125678
vt 0.308903 0.125432
vt 0.306682 0.122147
vt 0.225397 0.121821
vt 0.222516 0.125678
vt 0.120091 0.125678
vt 0.636396 0.125678
vt 0.019644 0.125678
vt 0.555110 0.125678
vt 0.308718 0.186396
vt 0.306440 0.183714
vt 0.471289 0.186890
vt 0.473824 0.186643
vt 0.555110 0.186643
vt 0.636396 0.186643
vt 0.019644 0.186643
vt 0.120091 0.186643
vt 0.225155 0.183389
vt 0.222516 0.186643
vt 0.471659 0.064962
vt 0.473824 0.064714
vt 0.309088 0.064468
vt 0.306924 0.060580
vt 0.225638 0.060254
vt 0.222516 0.064714
vt 0.120091 0.064714
vt 0.636396 0.064714
vt 0.019644 0.064714
vt 0.555110 0.064714
vt 0.308533 0.750401
vt 0.306198 0.753300
vt 0.471103 0.750895
vt 0.473824 0.750648
vt 0.555110 0.750648
vt 0.636396 0.750648
vt 0.019644 0.750648
vt 0.120091 0.750648
vt 0.224913 0.752974
vt 0.222516 0.750648
vt 0.308162 0.872330
vt 0.305715 0.876434
vt 0.470733 0.872823
vt 0.473824 0.872577
vt 0.555110 0.872577
vt 0.636396 0.872577
vt 0.019644 0.872577
vt 0.120091 0.872577
vt 0.224430 0.876108
vt 0.222516 0.872577
vt 0.470918 0.811859
vt 0.473824 0.811613
vt 0.308347 0.811365
vt 0.305957 0.814867
vt 0.224671 0.814541
vt 0.222516 0.811613
vt 0.120091 0.811613
vt 0.636396 0.811613
vt 0.019644 0.811613
vt 0.555110 0.811613
vt 0.307977 0.933294
vt 0.305473 0.938001
vt 0.470548 0.933787
vt 0.473824 0.933541
vt 0.555110 0.933541
vt 0.636396 0.933541
vt 0.019644 0.933541
vt 0.120091 0.933541
vt 0.224188 0.937676
vt 0.222516 0.933541
vt 0.471474 0.628967
vt 0.473824 0.628719
vt 0.308903 0.628473
vt 0.306682 0.630165
vt 0.225397 0.629840
vt 0.222516 0.628719
vt 0.120091 0.628719
vt 0.636396 0.628719
vt 0.019644 0.628719
vt 0.555110 0.628719
vt 0.308718 0.689437
vt 0.306440 0.691732
vt 0.471289 0.689931
vt 0.473824 0.689684
vt 0.555110 0.689684
vt 0.636396 0.689684
vt 0.019644 0.689684
vt 0.120091 0.689684
vt 0.225155 0.691407
vt 0.222516 0.689684
vt 0.471659 0.568003
vt 0.473824 0.567755
vt 0.309088 0.567509
vt 0.306924 0.568598
vt 0.225638 0.568273
vt 0.222516 0.567755
vt 0.120091 0.567755
vt 0.636396 0.567755
vt 0.019644 0.567755
vt 0.555110 0.567755
vn 0.000000 1.000000 0.000000
vn 0.000000 1.000000 0.000000
vn -0.255293 0.911995 -0.321079
vn -0.262853 0.918577 -0.295168
vn -0.380793 0.786330 -0.486500
vn -0.413602 0.783083 -0.464450
vn 1.000000 0.000000 0.000001
vn 1.000000 0.000000 0.000001
vn 1.000000 0.000000 0.000001
vn 1.000000 0.000000 0.000001
vn 1.000000 0.000000 0.000000
vn 1.000000 0.000000 0.000000
vn 0.000000 -1.000000 0.000000
vn 0.000000 -1.000000 0.000000
vn 0.000000 -1.000000 0.000000
vn 0.000000 -1.000000 0.000000
vn 0.000000 -1.000000 0.000000
vn 0.000000 -1.000000 0.000000
vn -0.666145 -0.000625 -0.745822
vn -0.666146 -0.000625 -0.745822
vn -0.620491 -0.001525 -0.784212
vn -0.621212 -0.001512 -0.783641
vn 0.613815 0.000000 0.789450
vn 0.661530 0.000000 0.749918
vn 0.661530 0.000000 0.749918
vn 0.613815 0.000000 0.789450
vn 0.000000 0.000000 1.000000
vn 0.000000 0.000000 1.000000
vn 0.000000 0.000000 1.000000
vn 0.000000 0.000000 1.000000
vn 0.000000 0.000000 1.000000
vn 0.000000 0.000000 1.000000
vn 0.000000 1.000000 0.000000
vn 0.000000 1.000000 0.000000
vn -0.407051 0.912515 -0.040319
vn -0.407888 0.912802 -0.020492
vn -0.621538 0.780963 -0.061548
vn -0.624112 0.780705 -0.031356
vn 0.000000 -1.000000 0.000000
vn 0.000000 -1.000000 0.000000
vn 0.000000 -1.000000 0.000000
vn 0.000000 -1.000000 0.000000
vn 0.000000 -1.000000 0.000000
vn 0.000000 -1.000000 0.000000
vn -0.998693 0.000000 -0.051119
vn -0.998693 0.000000 -0.051119
vn -0.995084 0.000000 -0.099037
vn -0.995084 0.000000 -0.099037
vn 0.996039 0.000000 0.088919
vn 0.998783 0.000000 0.049323
vn 0.998783 0.000000 0.049323
vn 0.996039 0.000000 0.088919
vn 0.748471 0.000000 0.663167
vn 0.748471 0.000000 0.663167
vn 0.786649 0.000000 0.617401
vn 0.786649 0.000000 0.617401
vn 0.000000 -1.000000 0.000000
vn 0.000000 -1.000000 0.000000
vn 0.000000 -1.000000 0.000000
vn 0.000000 -1.000000 0.000000
vn 0.000000 -1.000000 0.000000
vn 0.000000 -1.000000 0.000000
vn -0.778586 0.000611 -0.627538
vn -0.744433 0.000405 -0.667697
vn -0.744433 0.000405 -0.667697
vn -0.778855 0.000612 -0.627204
vn -0.329984 0.906749 -0.262522
vn -0.327467 0.898322 -0.292887
vn -0.467818 0.778507 -0.418417
vn -0.489500 0.777578 -0.394667
vn 0.000000 1.000000 0.000000
vn 0.000000 1.000000 0.000000
vn 0.940169 0.000000 0.340709
vn 0.967233 0.000000 0.253891
vn 0.967233 0.000000 0.253891
vn 0.940169 0.000000 0.340709
vn 0.000000 -1.000000 0.000000
vn 0.000000 -1.000000 0.000000
vn 0.000000 -1.000000 0.000000
vn 0.000000 -1.000000 0.000000
vn 0.000000 -1.000000 0.000000
vn 0.000000 -1.000000 0.000000
vn -0.956940 0.000000 -0.290285
vn -0.924590 0.000136 -0.380963
vn -0.924590 0.000136 -0.380963
vn -0.956940 0.000000 -0.290285
vn -0.397709 0.909811 -0.118625
vn -0.389726 0.907545 -0.156447
vn -0.582792 0.777924 -0.234921
vn -0.599772 0.779867 -0.179110
vn 0.000000 1.000000 0.000000
vn 0.000000 1.000000 0.000000
vn 0.985434 0.000000 0.170057
vn 0.985434 0.000000 0.170057
vn 0.000000 -1.000000 0.000000
vn 0.000000 -1.000000 0.000000
vn 0.000000 -1.000000 0.000000
vn -0.980785 0.000000 -0.195090
vn -0.980785 0.000000 -0.195090
vn -0.403751 0.911365 -0.079998
vn -0.612939 0.780738 -0.121467
vn 0.000000 1.000000 0.000000
vn 0.902392 0.000000 0.430917
vn 0.902392 0.000000 0.430917
vn 0.000000 1.000000 0.000000
vn -0.376740 0.905978 -0.193059
vn -0.560451 0.775964 -0.289439
vn -0.885406 0.000482 -0.464818
vn -0.885448 0.000482 -0.464738
vn 0.000000 -1.000000 0.000000
vn 0.000000 -1.000000 0.000000
vn 0.000000 -1.000000 0.000000
vn 0.851792 0.000000 0.523880
vn 0.851792 0.000000 0.523880
vn 0.000000 -1.000000 0.000000
vn 0.000000 -1.000000 0.000000
vn 0.000000 -1.000000 0.000000
vn -0.837780 0.000753 -0.546008
vn -0.837910 0.000753 -0.545808
vn -0.356968 0.905768 -0.228382
vn -0.529947 0.775660 -0.342795
vn 0.000000 1.000000 0.000000
vn 0.042770 0.000000 0.999085
vn 0.042770 0.000000 0.999085
vn 0.071361 0.000000 0.997451
vn 0.071361 0.000000 0.997451
vn 0.000000 -1.000000 0.000000
vn 0.000000 -1.000000 0.000000
vn 0.000000 -1.000000 0.000000
vn 0.000000 -1.000000 0.000000
vn 0.000000 -1.000000 0.000000
vn 0.000000 -1.000000 0.000000
vn -0.056041 0.000000 -0.998429
vn -0.032263 0.000000 -0.999479
vn -0.032263 0.000000 -0.999479
vn -0.056041 0.000000 -0.998429
vn -0.022922 0.915502 -0.401661
vn -0.012309 0.915074 -0.403099
vn -0.019031 0.781833 -0.623197
vn -0.036074 0.782489 -0.621618
vn 0.000000 1.000000 0.000000
vn 0.000000 1.000000 0.000000
vn 0.311275 0.000000 0.950320
vn 0.410084 0.000000 0.912048
vn 0.410084 0.000000 0.912048
vn 0.311275 0.000000 0.950320
vn 0.000000 -1.000000 0.000000
vn 0.000000 -1.000000 0.000000
vn 0.000000 -1.000000 0.000000
vn 0.000000 -1.000000 0.000000
vn 0.000000 -1.000000 0.000000
vn 0.000000 -1.000000 0.000000
vn -0.408828 -0.004103 -0.912602
vn -0.295669 -0.001707 -0.955289
vn -0.295669 -0.001707 -0.955289
vn -0.409950 -0.004116 -0.912099
vn -0.163472 0.917773 -0.361897
vn -0.117967 0.918298 -0.377905
vn -0.182951 0.790869 -0.583999
vn -0.249694 0.792235 -0.556791
vn 0.000000 1.000000 0.000000
vn 0.000000 1.000000 0.000000
vn 0.512886 0.000000 0.858457
vn 0.512886 0.000000 0.858457
vn 0.000000 1.000000 0.000000
vn -0.209980 0.915450 -0.343308
vn -0.316659 0.790502 -0.524246
vn -0.518960 -0.003620 -0.854791
vn -0.519957 -0.003598 -0.854185
vn 0.000000 -1.000000 0.000000
vn 0.000000 -1.000000 0.000000
vn 0.000000 -1.000000 0.000000
vn 0.220365 0.000000 0.975418
vn 0.220365 0.000000 0.975418
vn 0.000000 1.000000 0.000000
vn -0.079157 0.917892 -0.388855
vn -0.124163 0.787814 -0.603269
vn -0.194898 0.000000 -0.980824
vn -0.194898 0.000000 -0.980824
vn 0.000000 -1.000000 0.000000
vn 0.000000 -1.000000 0.000000
vn 0.000000 -1.000000 0.000000
vn 0.138795 0.000000 0.990321
vn 0.138795 0.000000 0.990321
vn 0.000000 -1.000000 0.000000
vn 0.000000 -1.000000 0.000000
vn 0.000000 -1.000000 0.000000
vn -0.115424 0.000000 -0.993316
vn -0.115424 0.000000 -0.993316
vn -0.047912 0.916651 -0.396806
vn -0.075519 0.784644 -0.615330
vn 0.000000 1.000000 0.000000
s 1
g Inside_Bend
usemtl initialShadingGroup
f 4/11/1 79/154/2 84/161/3 5/12/4
f 5/5/4 84/162/3 83/160/5 6/4/6
s 2
f 7/21/7 10/24/8 11/23/9 8/22/10
f 8/22/10 11/23/9 12/26/11 9/25/12
s 3
f 80/156/13 1/18/14 2/17/15 81/157/16
f 81/157/16 2/17/15 3/20/17 82/158/18
s 4
f 3/1/19 6/4/20 83/160/21 82/159/22
s 5
f 79/153/23 4/9/24 1/8/25 80/155/26
s 6
f 13/27/27 16/30/28 17/29/29 14/28/30
f 14/28/30 17/29/29 18/32/31 15/31/32
s 7
f 16/33/33 31/74/34 36/81/35 17/34/36
f 17/37/36 36/82/35 35/80/37 18/38/38
s 8
f 32/76/39 13/44/40 14/43/41 33/77/42
f 33/77/42 14/43/41 15/46/43 34/78/44
s 9
f 15/47/45 18/38/46 35/80/47 34/79/48
s 10
f 31/73/49 16/51/50 13/50/51 32/75/52
f 1/49/53 4/52/54 56/115/55 55/113/56
s 8
f 1/41/57 55/114/58 60/122/59 2/42/60
f 2/42/60 60/122/59 59/120/61 3/45/62
s 9
f 58/119/63 6/39/64 3/48/65 59/121/66
s 7
f 57/118/67 5/40/68 6/39/69 58/119/70
f 56/116/71 4/36/72 5/35/68 57/117/67
s 10
f 19/53/73 38/85/74 37/83/75 20/55/76
s 8
f 20/56/77 37/84/78 42/92/79 21/57/80
f 21/57/80 42/92/79 41/90/81 22/58/82
s 9
f 40/89/83 23/60/84 22/59/85 41/91/86
s 7
f 39/88/87 24/62/88 23/60/89 40/89/90
f 38/86/91 19/54/92 24/61/88 39/87/87
s 10
f 25/63/93 31/73/49 32/75/52 26/65/94
s 8
f 26/66/95 32/76/39 33/77/42 27/67/96
f 27/67/96 33/77/42 34/78/44 28/68/97
s 9
f 35/80/47 29/70/98 28/69/99 34/79/48
s 7
f 36/82/35 30/72/100 29/70/101 35/80/37
f 31/74/34 25/64/102 30/71/100 36/81/35
s 10
f 38/85/74 25/63/93 26/65/94 37/83/75
s 7
f 25/64/102 38/86/91 39/87/87 30/71/100
f 30/72/100 39/88/87 40/89/90 29/70/101
s 9
f 29/70/98 40/89/83 41/91/86 28/69/99
s 8
f 42/92/79 27/67/96 28/68/97 41/90/81
f 37/84/78 26/66/95 27/67/96 42/92/79
s 10
f 49/103/103 19/53/73 20/55/76 50/105/104
s 7
f 19/54/92 49/104/105 54/111/106 24/61/88
f 24/62/88 54/112/106 53/110/107 23/60/89
s 9
f 23/60/84 53/110/108 52/109/109 22/59/85
s 8
f 51/107/110 21/57/80 22/58/82 52/108/111
f 50/106/112 20/56/77 21/57/80 51/107/110
s 10
f 44/95/113 49/103/103 50/105/104 43/93/114
s 8
f 43/94/115 50/106/112 51/107/110 48/102/116
f 48/102/116 51/107/110 52/108/111 47/100/117
s 9
f 53/110/108 46/99/118 47/101/119 52/109/109
s 7
f 54/112/106 45/98/120 46/99/121 53/110/107
f 49/104/105 44/96/122 45/97/120 54/111/106
s 10
f 56/115/55 44/95/113 43/93/114 55/113/56
s 7
f 44/96/122 56/116/71 57/117/67 45/97/120
f 45/98/120 57/118/67 58/119/70 46/99/121
s 9
f 46/99/118 58/119/63 59/121/66 47/101/119
s 8
f 60/122/59 48/102/116 47/100/117 59/120/61
f 55/114/58 43/94/115 48/102/116 60/122/59
s 5
f 10/7/123 7/10/124 98/185/125 97/183/126
s 3
f 10/15/127 97/184/128 102/192/129 11/16/130
f 11/16/130 102/192/129 101/190/131 12/19/132
s 4
f 100/189/133 9/3/134 12/2/135 101/191/136
s 1
f 99/188/137 8/6/138 9/3/139 100/189/140
f 98/186/141 7/14/142 8/13/138 99/187/137
s 5
f 61/123/143 74/145/144 73/143/145 62/125/146
s 3
f 62/126/147 73/144/148 78/152/149 63/127/150
f 63/127/150 78/152/149 77/150/151 64/128/152
s 4
f 76/149/153 65/130/154 64/129/155 77/151/156
s 1
f 75/148/157 66/132/158 65/130/159 76/149/160
f 74/146/161 61/124/162 66/131/158 75/147/157
s 5
f 74/145/144 67/133/163 68/135/164 73/143/145
s 1
f 67/134/165 74/146/161 75/147/157 72/141/166
f 72/142/166 75/148/157 76/149/160 71/140/167
s 4
f 71/140/168 76/149/153 77/151/156 70/139/169
s 3
f 78/152/149 69/137/170 70/138/171 77/150/151
f 73/144/148 68/136/172 69/137/170 78/152/149
s 5
f 67/133/163 79/153/23 80/155/26 68/135/164
s 3
f 68/136/172 80/156/13 81/157/16 69/137/170
f 69/137/170 81/157/16 82/158/18 70/138/171
s 4
f 83/160/21 71/140/168 70/139/169 82/159/22
s 1
f 84/162/3 72/142/166 71/140/167 83/160/5
f 79/154/2 67/134/165 72/141/166 84/161/3
s 5
f 91/173/173 61/123/143 62/125/146 92/175/174
s 1
f 61/124/162 91/174/175 96/181/176 66/131/158
f 66/132/158 96/182/176 95/180/177 65/130/159
s 4
f 65/130/154 95/180/178 94/179/179 64/129/155
s 3
f 93/177/180 63/127/150 64/128/152 94/178/181
f 92/176/182 62/126/147 63/127/150 93/177/180
s 5
f 86/165/183 91/173/173 92/175/174 85/163/184
s 3
f 85/164/185 92/176/182 93/177/180 90/172/186
f 90/172/186 93/177/180 94/178/181 89/170/187
s 4
f 95/180/178 88/169/188 89/171/189 94/179/179
s 1
f 96/182/176 87/168/190 88/169/191 95/180/177
f 91/174/175 86/166/192 87/167/190 96/181/176
s 5
f 98/185/125 86/165/183 85/163/184 97/183/126
s 1
f 86/166/192 98/186/141 99/187/137 87/167/190
f 87/168/190 99/188/137 100/189/140 88/169/191
s 4
f 88/169/188 100/189/133 101/191/136 89/171/189
s 3
f 102/192/129 90/172/186 89/170/187 101/190/131
f 97/184/128 85/164/185 90/172/186 102/192/129
