# This file uses centimeters as units for non-parametric coordinates.

mtllib OutsideCorner_LP.mtl
g default
v -1.000000 0.000000 0.000000
v -0.500000 0.000000 0.000000
v 0.000000 0.000000 0.000000
v -1.000000 1.000000 0.000000
v -0.500000 1.000000 0.000000
v 0.000000 0.600000 0.000000
v -1.000000 1.000000 -4.000000
v -0.500000 1.000000 -3.496964
v 0.000000 0.600000 -3.000000
v -1.000000 0.000000 -4.000000
v -0.500000 0.000000 -3.496964
v 0.000000 0.000000 -3.000000
v 3.000000 1.000000 -4.000000
v 3.000000 1.000000 -3.500000
v 3.000000 0.600000 -3.000000
v 3.000000 0.000000 -4.000000
v 3.000000 0.000000 -3.500000
v 3.000000 0.000000 -3.000000
vt 0.257543 0.440686
vt 0.257543 0.000000
vt 0.348304 0.000000
vt 0.348304 0.440686
vt 0.000000 0.000000
vt 0.079244 0.000000
vt 0.808012 0.000523
vt 0.806444 0.516898
vt 0.634319 0.516376
vt 0.635886 0.000000
vt 0.079244 0.554224
vt 0.000000 0.633948
vt 0.158487 0.000000
vt 0.158487 0.475461
vt 0.634319 0.516868
vt 0.714806 0.516868
vt 0.714806 0.999791
vt 0.634319 0.999791
vt 0.795293 0.516868
vt 0.795293 0.999791
vt 0.352929 0.149690
vt 0.427462 0.149690
vt 0.427462 0.298755
vt 0.352929 0.298755
vt 0.501995 0.149690
vt 0.501995 0.239129
vt 0.633948 0.554705
vt 0.633948 0.633948
vt 0.633948 0.475461
vt 0.812351 0.000000
vt 0.810784 0.516376
vt 0.252917 0.440686
vt 0.252917 0.000000
vt 0.982909 0.516898
vt 0.501743 0.149690
vt 0.427211 0.149377
vt 0.427837 0.000313
vt 0.502369 0.000626
vt 0.352929 0.089438
vt 0.353305 0.000000
vt 0.810784 0.516868
vt 0.891306 0.516868
vt 0.891306 1.000000
vt 0.810784 1.000000
vt 0.971828 0.516868
vt 0.971828 1.000000
vt 0.162157 0.440686
vt 0.162157 0.000000
vt 0.984476 0.000523
vn 0.000000 0.000000 1.000000
vn 0.000000 0.000000 1.000000
vn 0.000000 0.000000 1.000000
vn 0.000000 0.000000 1.000000
vn 0.000000 0.000000 1.000000
vn 0.000000 0.000000 1.000000
vn 0.000000 1.000000 -0.000000
vn 0.348176 0.937429 -0.000000
vn 0.196635 0.980477 -0.000000
vn 0.000000 1.000000 -0.000000
vn 0.624695 0.780869 0.000000
vn 0.624695 0.780869 0.000000
vn 0.000000 -1.000000 0.000000
vn 0.000000 -1.000000 0.000000
vn 0.000000 -1.000000 0.000000
vn 0.000000 -1.000000 0.000000
vn 0.000000 -1.000000 0.000000
vn 0.000000 -1.000000 0.000000
vn 1.000000 0.000000 0.000000
vn 1.000000 0.000000 0.000000
vn 1.000000 0.000000 0.000000
vn 1.000000 0.000000 0.000000
vn -1.000000 0.000000 0.000000
vn -1.000000 0.000000 0.000000
vn -1.000000 0.000000 0.000000
vn -1.000000 0.000000 0.000000
vn -0.000000 1.000000 0.000000
vn 0.000092 0.980584 0.196100
vn 0.000162 0.937535 0.347892
vn -0.000000 1.000000 0.000000
vn 0.000292 0.780013 0.625763
vn 0.000292 0.780013 0.625763
vn 1.000000 0.000000 0.000000
vn 1.000000 0.000000 0.000000
vn 1.000000 0.000000 0.000000
vn 1.000000 0.000000 0.000000
vn 1.000000 0.000000 0.000000
vn 1.000000 0.000000 0.000000
vn 0.000000 -1.000000 0.000000
vn 0.000000 -1.000000 0.000000
vn 0.000000 -1.000000 0.000000
vn 0.000000 -1.000000 0.000000
vn 0.000000 -1.000000 0.000000
vn 0.000000 -1.000000 0.000000
vn 0.000000 0.000000 1.000000
vn 0.000000 0.000000 1.000000
vn 0.000000 0.000000 1.000000
vn 0.000000 0.000000 1.000000
vn 0.000000 0.000000 -1.000000
vn 0.000000 0.000000 -1.000000
vn 0.000000 0.000000 -1.000000
vn 0.000000 0.000000 -1.000000
s 1
g Outside_Corner
usemtl initialShadingGroup
f 1/21/1 2/22/2 5/23/3 4/24/4
f 2/22/2 3/25/5 6/26/6 5/23/3
s 2
f 4/5/7 5/6/8 8/11/9 7/12/10
f 5/6/8 6/13/11 9/14/12 8/11/9
s 3
f 10/15/13 11/16/14 2/17/15 1/18/16
f 11/16/14 12/19/17 3/20/18 2/17/15
s off
f 3/1/19 12/2/20 9/3/21 6/4/22
f 10/7/23 1/8/24 4/9/25 7/10/26
s 4
f 7/12/27 8/11/28 14/27/29 13/28/30
f 8/11/28 9/14/31 15/29/32 14/27/29
s 5
f 13/35/33 14/36/34 17/37/35 16/38/36
f 14/36/34 15/39/37 18/40/38 17/37/35
s 6
f 16/41/39 17/42/40 11/43/41 10/44/42
f 17/42/40 18/45/43 12/46/44 11/43/41
s off
f 12/47/45 18/48/46 15/33/47 9/32/48
f 16/49/49 10/34/50 7/31/51 13/30/52
