# This file uses centimeters as units for non-parametric coordinates.

mtllib Wall_LP.mtl
g default
v -1.000000 0.000000 0.000000
v -0.500000 0.000000 0.000000
v 0.000000 0.000000 0.000000
v -1.000000 1.000000 0.000000
v -0.500000 1.000000 0.000000
v 0.000000 0.600000 0.000000
v -1.000000 1.000000 -3.000000
v -0.500000 1.000000 -3.000000
v 0.000000 0.600000 -3.000000
v -1.000000 0.000000 -3.000000
v -0.500000 0.000000 -3.000000
v 0.000000 0.000000 -3.000000
vt 0.019644 0.491465
vt 0.019644 0.003750
vt 0.120091 0.003750
vt 0.120091 0.491465
vt 0.222516 0.491465
vt 0.222516 0.003750
vt 0.471844 0.003998
vt 0.470363 0.491711
vt 0.307792 0.491217
vt 0.309273 0.003504
vt 0.305231 0.491624
vt 0.223946 0.491302
vt 0.225880 0.003590
vt 0.307165 0.003913
vt 0.473824 0.003750
vt 0.555110 0.003750
vt 0.555110 0.491465
vt 0.473824 0.491465
vt 0.636396 0.003750
vt 0.636396 0.491465
vt 0.816792 0.009806
vt 0.898078 0.009806
vt 0.898078 0.172378
vt 0.816792 0.172378
vt 0.979364 0.009806
vt 0.979364 0.107349
vt 0.812135 0.172720
vt 0.730850 0.172378
vt 0.731532 0.009808
vt 0.812817 0.010149
vt 0.649837 0.107009
vt 0.650247 0.009467
vn 0.000000 0.000000 1.000000
vn 0.000000 0.000000 1.000000
vn 0.000000 0.000000 1.000000
vn 0.000000 0.000000 1.000000
vn 0.000000 0.000000 1.000000
vn 0.000000 0.000000 1.000000
vn 0.000000 1.000000 0.000000
vn 0.371391 0.928477 0.000000
vn 0.371391 0.928477 0.000000
vn 0.000000 1.000000 0.000000
vn 0.624695 0.780869 0.000000
vn 0.624695 0.780869 0.000000
vn 0.000000 0.000000 -1.000000
vn 0.000000 0.000000 -1.000000
vn 0.000000 0.000000 -1.000000
vn 0.000000 0.000000 -1.000000
vn 0.000000 0.000000 -1.000000
vn 0.000000 0.000000 -1.000000
vn 0.000000 -1.000000 0.000000
vn 0.000000 -1.000000 0.000000
vn 0.000000 -1.000000 0.000000
vn 0.000000 -1.000000 0.000000
vn 0.000000 -1.000000 0.000000
vn 0.000000 -1.000000 0.000000
vn 1.000000 0.000000 0.000000
vn 1.000000 0.000000 0.000000
vn 1.000000 0.000000 0.000000
vn 1.000000 0.000000 0.000000
vn -1.000000 0.000000 0.000000
vn -1.000000 0.000000 0.000000
vn -1.000000 0.000000 0.000000
vn -1.000000 0.000000 0.000000
s 1
g Wall
usemtl initialShadingGroup
f 1/21/1 2/22/2 5/23/3 4/24/4
f 2/22/2 3/25/5 6/26/6 5/23/3
s 2
f 4/11/7 5/12/8 8/13/9 7/14/10
f 5/5/8 6/4/11 9/3/12 8/6/9
s 3
f 7/27/13 8/28/14 11/29/15 10/30/16
f 8/28/14 9/31/17 12/32/18 11/29/15
s 4
f 10/15/19 11/16/20 2/17/21 1/18/22
f 11/16/20 12/19/23 3/20/24 2/17/21
s off
f 3/1/25 12/2/26 9/3/27 6/4/28
f 10/7/29 1/8/30 4/9/31 7/10/32
