# This file uses centimeters as units for non-parametric coordinates.

mtllib Outsidecorner_LP.mtl
g default
v -1.001030 -0.004326 0.000000
v -0.500515 -0.004326 0.000000
v 0.000000 -0.004326 0.000000
v -1.001030 0.996704 0.000000
v -0.500515 0.996704 0.000000
v 0.000000 0.596292 0.000000
v -1.001030 0.996704 -4.004220
v -0.500307 0.996704 -3.504501
v 0.000000 0.596292 -3.003090
v -1.001030 -0.004326 -3.003090
v -0.500515 -0.004326 -3.003090
v 0.000000 -0.004326 -4.004120
v -1.001151 0.996704 -4.004120
v 3.003090 0.996704 -4.004120
v 3.003090 0.996704 -3.503605
v 3.003090 0.596292 -3.003090
v 3.003090 -0.004326 -4.004120
v 3.003090 -0.004326 -3.503605
v 3.003090 -0.004326 -3.003090
v -0.500307 0.996704 -3.504501
v -0.500307 0.996704 -3.504501
v -0.500307 0.996704 -3.504501
v 0.000000 0.596292 -3.003090
v 0.000000 0.596292 -3.003090
v 0.000000 0.596292 -3.003090
v 0.000000 -0.004326 -3.003090
v 0.000000 -0.004326 -3.003090
v 0.000000 -0.004326 -3.003090
v 0.000000 -0.004326 -4.004120
v 0.000000 -0.004326 -3.503605
v -0.500307 0.996704 -3.504501
v -1.001151 0.996704 -4.004120
v 0.000000 -0.004326 -3.503605
v 0.000000 -0.004326 -3.003090
v 0.000000 0.596292 -3.003090
v -0.500307 0.996704 -3.504501
v 3.003090 -0.004326 -4.004120
v 3.003090 -0.004326 -3.503605
v 0.000000 -0.004326 -3.503605
v 0.000000 -0.004326 -4.004120
v 3.003090 -0.004326 -3.503605
v 3.003090 -0.004326 -3.003090
v 0.000000 -0.004326 -3.003090
v 0.000000 -0.004326 -3.503605
vt 0.084264 0.488830
vt 0.184748 0.488830
vt 1.894809 0.000000
vt 1.778390 0.112559
vt 0.539430 0.488830
vt 0.539430 0.001639
vt 0.701827 0.001639
vt 0.701827 0.488830
vt 1.308398 0.900723
vt 1.894809 0.795663
vt 1.890942 0.112559
vt 1.217526 0.000000
vt 0.254702 0.001639
vt 0.458355 0.001639
vt 0.458355 0.488830
vt 0.254702 0.488830
vt 0.539553 0.488830
vt 0.836892 0.000991
vt 0.918090 0.000991
vt 0.918090 0.163388
vt 0.836892 0.163388
vt 0.999289 0.000991
vt 0.999289 0.098429
vt 1.208877 1.000000
vt 2.004540 0.900545
vt 2.004540 1.000000
vt 1.892704 0.000000
vt 0.699452 0.996840
vt 0.192846 0.510228
vt 0.699452 0.510228
vt 0.833957 0.704566
vt 0.915059 0.704566
vt 0.915059 0.866769
vt 0.833957 0.866769
vt 0.996161 0.769447
vt 0.996161 0.866769
vt 0.088249 0.510228
vt 0.537249 0.996840
vt 0.537249 0.510228
vt 1.105043 0.112732
vt 1.778437 0.900629
vt 1.994306 0.696365
vt 0.192846 0.996840
vt 0.184748 0.001639
vt 1.890942 0.787875
vt 0.088249 0.996840
vt 0.084264 0.001639
vt 0.539553 0.001639
vt 0.835684 0.501462
vt 0.916786 0.501462
vt 0.916786 0.663666
vt 0.835684 0.663666
vt 0.916786 0.501462
vt 0.997888 0.501462
vt 0.997888 0.598784
vt 0.916786 0.663666
vt 0.257182 0.510228
vt 0.456318 0.510228
vt 0.456318 0.996840
vt 0.257182 0.996840
vt 0.456318 0.510228
vt 0.535342 0.510228
vt 0.535342 0.996840
vt 0.456318 0.996840
vt 1.994264 0.000000
vt 1.892704 0.112530
vn 0.000000 0.000000 1.000000
vn 0.000000 0.000000 1.000000
vn 0.000000 0.000000 1.000000
vn 0.000000 0.000000 1.000000
vn 0.000000 0.000000 1.000000
vn 0.000000 0.000000 1.000000
vn -0.000000 1.000000 0.000000
vn -0.000000 1.000000 0.000000
vn -0.000000 1.000000 0.000000
vn -0.000000 1.000000 0.000000
vn 0.624768 0.780810 0.000020
vn 0.624768 0.780810 0.000020
vn 0.624768 0.780810 0.000020
vn 0.624768 0.780810 0.000020
vn 0.000000 -1.000000 0.000000
vn 0.000000 -1.000000 -0.000000
vn 0.000000 -1.000000 -0.000000
vn 0.000000 -1.000000 0.000000
vn 0.000000 -1.000000 -0.000000
vn 0.000000 -1.000000 -0.000000
vn 1.000000 0.000000 0.000000
vn 1.000000 0.000000 0.000000
vn 1.000000 0.000000 0.000000
vn 1.000000 0.000000 0.000000
vn -1.000000 0.000000 0.000000
vn -1.000000 0.000000 0.000000
vn -1.000000 0.000000 0.000000
vn -1.000000 0.000000 0.000000
vn -0.742704 -0.556830 0.371929
vn -0.742704 -0.556830 0.371929
vn -0.742704 -0.556830 0.371929
vn -0.742704 -0.556830 0.371929
vn -0.898837 -0.280582 0.336698
vn -0.898837 -0.280582 0.336698
vn -0.898837 -0.280582 0.336698
vn -0.898837 -0.280582 0.336698
vn -0.000000 1.000000 0.000000
vn -0.000000 1.000000 0.000000
vn -0.000000 1.000000 0.000000
vn -0.000000 1.000000 0.000000
vn -0.000086 0.781120 0.624381
vn -0.000086 0.781120 0.624381
vn -0.000086 0.781120 0.624381
vn -0.000086 0.781120 0.624381
vn 1.000000 0.000000 0.000000
vn 1.000000 0.000000 0.000000
vn 1.000000 0.000000 0.000000
vn 1.000000 0.000000 0.000000
vn 1.000000 0.000000 0.000000
vn 1.000000 0.000000 0.000000
vn 0.000000 -1.000000 -0.000000
vn 0.000000 -1.000000 -0.000000
vn 0.000000 -1.000000 -0.000000
vn 0.000000 -1.000000 -0.000000
vn 0.000000 -1.000000 0.000000
vn 0.000000 -1.000000 0.000000
vn 0.000000 -1.000000 0.000000
vn 0.000000 -1.000000 0.000000
vn 0.000000 0.000000 1.000000
vn 0.000000 0.000000 1.000000
vn 0.000000 0.000000 1.000000
vn 0.000000 0.000000 1.000000
vn 0.000000 0.000000 -1.000000
vn 0.000000 0.000000 -1.000000
vn 0.000000 0.000000 -1.000000
vn 0.000000 0.000000 -1.000000
s 1
g Outside_corner
usemtl initialShadingGroup
f 1/18/1 2/19/2 5/20/3 4/21/4
f 2/19/2 3/22/5 6/23/6 5/20/3
s off
f 4/3/7 5/65/8 21/42/9 7/10/10
f 5/4/11 6/11/12 25/45/13 22/41/14
s 2
f 10/13/15 11/14/16 2/15/17 1/16/18
f 11/14/16 27/48/19 3/17/20 2/15/17
s off
f 3/1/21 28/47/22 24/44/23 6/2/24
f 10/5/25 1/6/26 4/7/27 7/8/28
f 29/49/29 30/50/30 31/51/31 32/52/32
f 33/53/33 34/54/34 35/55/35 36/56/36
f 13/24/37 8/9/38 15/25/39 14/26/40
f 20/40/41 9/12/42 16/27/43 15/66/44
s 3
f 14/31/45 15/32/46 18/33/47 17/34/48
f 15/32/46 16/35/49 19/36/50 18/33/47
s off
f 37/57/51 38/58/52 39/59/53 40/60/54
f 41/61/55 42/62/56 43/63/57 44/64/58
f 26/46/59 19/37/60 16/29/61 23/43/62
f 17/38/63 12/39/64 13/30/65 14/28/66
