# This file uses centimeters as units for non-parametric coordinates.

mtllib Insidecorner_LP.mtl
g default
v -1.000000 0.000000 0.000080
v -0.500000 0.000000 0.000080
v 0.000000 0.000000 0.000080
v -1.000000 1.000000 0.000080
v -0.500000 1.000000 0.000080
v 0.000000 0.600000 0.000080
v 0.000019 0.600983 -2.997539
v -1.000000 0.000000 -2.999920
v -0.500000 0.000000 -2.999920
v 0.000019 0.000023 -2.997539
v -1.000008 0.999990 -2.007900
v -0.500793 1.000020 -2.500732
v -1.000000 0.000000 -2.007908
v -0.500789 0.000023 -2.500735
v 0.000038 0.000047 -1.999956
v 0.000038 0.000047 -2.499956
v -3.000003 1.000031 -1.999944
v -2.999997 1.000039 -2.499950
v -2.999962 0.600047 -2.999956
v -2.999962 0.000047 -1.999956
v -2.999962 0.000047 -2.499956
v -2.999962 0.000047 -2.999956
v -1.008059 1.000042 -1.999952
v -1.008055 0.000047 -1.999956
vt 0.088096 0.488830
vt 0.088096 0.002028
vt 0.188580 0.002028
vt 0.188580 0.488830
vt 0.256923 0.488830
vt 0.543262 0.001639
vt 0.705659 0.001639
vt 0.005078 0.001639
vt 0.086276 0.001639
vt 0.258534 0.001639
vt 0.462187 0.001639
vt 0.462187 0.488830
vt 0.258534 0.488830
vt 0.543385 0.002028
vt 0.543385 0.488830
vt 0.836892 0.000991
vt 0.918090 0.000991
vt 0.918090 0.163388
vt 0.836892 0.163388
vt 0.999289 0.000991
vt 0.999289 0.098429
vt 0.705659 0.327724
vt 0.005078 0.327724
vt 0.086276 0.407884
vt 0.256923 0.082584
vt 0.543262 0.327730
vt 0.258534 0.162738
vt 0.462187 0.082578
vt 0.258534 0.001639
vt 0.462187 0.001639
vt 0.462187 0.407369
vt 0.258534 0.325118
vt 0.543385 0.001639
vt 0.542996 0.488830
vt 0.088096 0.488830
vt 0.088096 0.001639
vt 0.188580 0.001639
vt 0.188908 0.488830
vt 0.543262 0.488830
vt 0.543262 0.165350
vt 0.705659 0.165348
vt 0.705659 0.488830
vt 0.005078 0.165348
vt 0.086276 0.083099
vt 0.086276 0.488829
vt 0.005078 0.488829
vt 0.256923 0.407369
vt 0.256923 0.001639
vt 0.462187 0.488830
vt 0.258534 0.488830
vn 0.000000 0.000000 1.000000
vn 0.000000 0.000000 1.000000
vn 0.000000 0.000000 1.000000
vn 0.000000 0.000000 1.000000
vn 0.000000 0.000000 1.000000
vn 0.000000 0.000000 1.000000
vn -0.000029 1.000000 0.000002
vn 0.402018 0.915632 0.000036
vn 0.526050 0.850454 0.000047
vn -0.000029 1.000000 0.000002
vn 0.623944 0.781470 0.000055
vn 0.623944 0.781470 0.000055
vn 0.000031 -1.000000 0.000016
vn 0.000035 -1.000000 0.000024
vn 0.000002 -1.000000 0.000002
vn 0.000022 -1.000000 -0.000003
vn -0.000002 -1.000000 -0.000002
vn 1.000000 0.000000 0.000006
vn 1.000000 0.000000 0.000006
vn 1.000000 0.000000 0.000006
vn 1.000000 0.000000 0.000006
vn 0.000007 -1.000000 -0.000007
vn 0.000021 -1.000000 -0.000005
vn -0.000004 -1.000000 -0.000009
vn -1.000000 -0.000004 0.000002
vn -1.000000 -0.000004 0.000002
vn -1.000000 -0.000004 0.000002
vn -1.000000 -0.000004 0.000002
vn -0.000005 -1.000000 0.000021
vn -0.000007 -1.000000 0.000007
vn -0.000003 -1.000000 0.000022
vn -0.000009 -1.000000 -0.000004
vn 0.000806 0.000000 -1.000000
vn 0.000806 0.000000 -1.000000
vn 0.000806 0.000000 -1.000000
vn 0.000806 0.000000 -1.000000
vn 0.000002 -0.000008 1.000000
vn 0.000002 -0.000008 1.000000
vn 0.000002 -0.000008 1.000000
vn 0.000002 -0.000008 1.000000
vn 0.000002 1.000000 -0.000013
vn 0.000048 0.848524 -0.529157
vn 0.000037 0.915181 -0.403043
vn 0.000002 1.000000 -0.000013
vn 0.000056 0.780279 -0.625431
vn 0.000056 0.780279 -0.625431
vn 0.000023 -1.000000 0.000035
vn 0.000016 -1.000000 0.000031
s 1
g Inside_corner
usemtl initialShadingGroup
f 1/16/1 2/17/2 5/18/3 4/19/4
f 2/17/2 3/20/5 6/21/6 5/18/3
s 2
f 4/8/7 5/9/8 12/24/9 11/23/10
f 5/5/8 6/4/11 7/3/12 12/25/9
s 3
f 8/10/13 9/11/14 14/28/15 13/27/16
f 9/11/14 10/14/17 14/28/15
s off
f 3/1/18 10/2/19 7/3/20 6/4/21
s 3
f 13/27/16 14/28/15 2/12/22 1/13/23
f 14/28/15 10/14/17 3/15/24 2/12/22
s off
f 11/22/25 13/26/26 1/6/27 4/7/28
s 4
f 20/29/29 21/30/30 14/31/15 24/32/31
f 21/30/30 22/33/32 10/34/17 14/31/15
s off
f 10/35/33 22/36/34 19/37/35 7/38/36
f 20/39/37 24/40/38 23/41/39 17/42/40
s 5
f 23/43/41 12/44/42 18/45/43 17/46/44
f 12/47/42 7/38/45 19/37/46 18/48/43
s 4
f 24/32/31 14/31/15 16/49/47 15/50/48
f 14/31/15 10/34/17 16/49/47
