# This file uses centimeters as units for non-parametric coordinates.

mtllib Outsidebend_LP.mtl
g default
v 0.177200 -0.000597 -2.958747
v 0.507328 -0.000998 -2.575911
v 0.842011 -0.001322 -2.198769
v 0.179205 0.999430 -2.961259
v 0.509659 0.999038 -2.578826
v 0.842011 0.598678 -2.198769
v 2.997896 0.994912 -4.000044
v 3.002228 0.995312 -3.505693
v 3.000577 0.595179 -3.000044
v 2.996440 -0.004779 -4.005687
v 3.005715 -0.004620 -3.505687
v 3.000577 -0.004821 -3.000044
v -1.003569 0.000899 -0.000009
v -0.507396 0.000834 -0.000016
v 0.000000 0.000960 0.000000
v -1.003569 1.000899 -0.000009
v -0.507396 1.000834 -0.000016
v 0.000000 0.600960 0.000000
v 1.471081 0.997480 -3.757989
v 1.471052 -0.002508 -3.757967
v 1.649613 -0.002728 -3.280045
v 1.829498 -0.002924 -2.803777
v 1.829498 0.597076 -2.803777
v 1.650571 0.997283 -3.281229
v 2.236640 -0.003316 -3.945260
v 2.236677 0.996670 -3.945279
v 2.330320 0.996610 -3.450002
v 2.424386 0.596558 -2.955276
v 2.424386 -0.003442 -2.955276
v 2.330291 -0.003383 -3.449991
v 1.845578 0.997037 -3.868804
v 1.845546 -0.002951 -3.868783
v 1.982409 -0.003093 -3.379957
v 2.120123 -0.003220 -2.892193
v 2.120123 0.596780 -2.892193
v 1.982435 0.996901 -3.379970
v 0.780734 0.998487 -3.431197
v 0.780714 -0.001504 -3.431174
v 1.035324 -0.001901 -2.986467
v 1.297348 -0.002171 -2.551027
v 1.297348 0.597829 -2.551027
v 1.038334 0.998146 -2.990225
v 1.115013 -0.002024 -3.611687
v 1.115037 0.997966 -3.611709
v 1.335877 0.997716 -3.152171
v 1.554620 0.597431 -2.690020
v 1.554620 -0.002569 -2.690020
v 1.332565 -0.002335 -3.148038
v 0.468675 0.998992 -3.214794
v 0.466303 -0.001040 -3.211827
v 0.759700 -0.001448 -2.795569
v 1.059321 -0.001749 -2.387092
v 1.059321 0.598251 -2.387092
v 0.762379 0.998593 -2.798918
v -0.687986 1.000662 -1.645552
v -0.688590 0.000655 -1.644786
v -0.240433 0.000419 -1.436220
v 0.205230 0.000140 -1.224535
v 0.205230 0.600140 -1.224535
v -0.239475 1.000433 -1.437422
v -0.317165 0.000163 -2.357756
v -0.315893 1.000178 -2.359355
v 0.079940 0.999840 -2.056690
v 0.474783 0.599485 -1.752787
v 0.474783 -0.000515 -1.752787
v 0.078316 -0.000185 -2.054655
v -0.518142 1.000458 -2.015047
v -0.519068 0.000447 -2.013880
v -0.095510 0.000149 -1.756430
v 0.327250 -0.000163 -1.497984
v 0.327250 0.599837 -1.497984
v -0.094229 1.000168 -1.758037
v -0.924117 1.000838 -0.845599
v -0.924117 0.000840 -0.845593
v -0.438623 0.000756 -0.741928
v 0.041602 0.000581 -0.631678
v 0.041602 0.600581 -0.631678
v -0.438240 1.000761 -0.742412
v -0.824149 0.000785 -1.253969
v -0.823836 1.000787 -1.254369
v -0.354536 1.000631 -1.097765
v 0.109715 0.600389 -0.934846
v 0.109715 0.000389 -0.934846
v -0.355192 0.000622 -1.096939
v -0.084520 -0.000190 -2.673486
v -0.082886 0.999831 -2.675537
v 0.281698 0.999459 -2.330934
v 0.646753 0.599095 -1.986923
v 0.646753 -0.000905 -1.986923
v 0.279721 -0.000571 -2.328460
v -0.986527 1.000836 -0.424851
v -0.986527 0.000837 -0.424848
v -0.489697 0.000823 -0.374890
v 0.001661 0.000717 -0.318093
v 0.001661 0.600717 -0.318093
v -0.489558 1.000825 -0.375067
v 2.643754 -0.003547 -3.990644
v 2.643796 0.996439 -3.990659
v 2.691793 0.996429 -3.491799
v 2.739892 0.596421 -2.993088
v 2.739892 -0.003579 -2.993088
v 2.691762 -0.003564 -3.491790
vt 1.073316 1.996615
vt 1.073316 1.509424
vt 1.173800 1.509424
vt 1.173800 1.996615
vt 1.242143 1.996615
vt 1.242143 1.509424
vt 1.528482 1.996615
vt 1.528482 1.509424
vt 1.690879 1.509424
vt 1.690879 1.996615
vt 0.990297 1.509424
vt 1.071496 1.509424
vt 1.071496 1.996614
vt 0.990297 1.996614
vt 1.243753 1.509424
vt 1.447406 1.509424
vt 1.447406 1.996615
vt 1.243753 1.996615
vt 1.528605 1.509424
vt 1.528605 1.996615
vt 1.822111 1.006181
vt 1.903310 1.006181
vt 1.903310 1.168578
vt 1.822111 1.168578
vt 1.984508 1.006181
vt 1.984508 1.103619
vt 0.990297 1.006829
vt 1.071496 1.006829
vt 1.071496 1.494020
vt 0.990297 1.494020
vt 1.242143 1.494020
vt 1.173800 1.494020
vt 1.173800 1.006829
vt 1.242143 1.006829
vt 1.243753 1.006829
vt 1.447406 1.006829
vt 1.447406 1.494020
vt 1.243753 1.494020
vt 1.528605 1.006829
vt 1.528605 1.494020
vt 1.073316 1.494020
vt 1.073316 1.006829
vt 1.528482 1.494020
vt 1.528482 1.006829
vt 1.690879 1.006829
vt 1.690879 1.494020
vt 1.690879 1.753019
vt 0.990297 1.753019
vt 1.528482 1.753019
vt 1.243753 1.753019
vt 1.447406 1.753019
vt 1.528605 1.753019
vt 1.073316 1.753019
vt 1.173800 1.753019
vt 1.071496 1.753019
vt 1.242143 1.753019
vt 1.528482 1.874817
vt 1.243753 1.631221
vt 1.690879 1.874817
vt 0.990297 1.874817
vt 1.071496 1.874817
vt 1.242143 1.631221
vt 1.173800 1.631221
vt 1.528605 1.631221
vt 1.073316 1.631221
vt 1.447406 1.631221
vt 1.690879 1.813918
vt 0.990297 1.813918
vt 1.528482 1.813918
vt 1.243753 1.692120
vt 1.447406 1.692120
vt 1.528605 1.692120
vt 1.073316 1.692120
vt 1.173800 1.692120
vt 1.071496 1.813918
vt 1.242143 1.692120
vt 1.690879 1.631221
vt 0.990297 1.631221
vt 1.528482 1.631221
vt 1.243753 1.874817
vt 1.447406 1.874817
vt 1.528605 1.874817
vt 1.073316 1.874817
vt 1.173800 1.874817
vt 1.071496 1.631221
vt 1.242143 1.874817
vt 1.528482 1.692120
vt 1.243753 1.813918
vt 1.690879 1.692120
vt 0.990297 1.692120
vt 1.071496 1.692120
vt 1.242143 1.813918
vt 1.173800 1.813918
vt 1.528605 1.813918
vt 1.073316 1.813918
vt 1.447406 1.813918
vt 1.690879 1.570323
vt 0.990297 1.570323
vt 1.528482 1.570323
vt 1.243753 1.935716
vt 1.447406 1.935716
vt 1.528605 1.935716
vt 1.073316 1.935716
vt 1.173800 1.935716
vt 1.071496 1.570323
vt 1.242143 1.935716
vt 1.690879 1.250424
vt 0.990297 1.250424
vt 1.528482 1.250424
vt 1.243753 1.250424
vt 1.447406 1.250424
vt 1.528605 1.250424
vt 1.073316 1.250424
vt 1.173800 1.250424
vt 1.071496 1.250424
vt 1.242143 1.250424
vt 1.528482 1.372222
vt 1.243753 1.128626
vt 1.690879 1.372222
vt 0.990297 1.372222
vt 1.071496 1.372222
vt 1.242143 1.128626
vt 1.173800 1.128626
vt 1.528605 1.128626
vt 1.073316 1.128626
vt 1.447406 1.128626
vt 1.690879 1.311323
vt 0.990297 1.311323
vt 1.528482 1.311323
vt 1.243753 1.189525
vt 1.447406 1.189525
vt 1.528605 1.189525
vt 1.073316 1.189525
vt 1.173800 1.189525
vt 1.071496 1.311323
vt 1.242143 1.189525
vt 1.690879 1.128626
vt 0.990297 1.128626
vt 1.528482 1.128626
vt 1.243753 1.372222
vt 1.447406 1.372222
vt 1.528605 1.372222
vt 1.073316 1.372222
vt 1.173800 1.372222
vt 1.071496 1.128626
vt 1.242143 1.372222
vt 1.528482 1.189525
vt 1.243753 1.311323
vt 1.690879 1.189525
vt 0.990297 1.189525
vt 1.071496 1.189525
vt 1.242143 1.311323
vt 1.173800 1.311323
vt 1.528605 1.311323
vt 1.073316 1.311323
vt 1.447406 1.311323
vt 1.528482 1.433121
vt 1.243753 1.067727
vt 1.690879 1.433121
vt 0.990297 1.433121
vt 1.071496 1.433121
vt 1.242143 1.067727
vt 1.173800 1.067727
vt 1.528605 1.067727
vt 1.073316 1.067727
vt 1.447406 1.067727
vt 1.690879 1.067727
vt 0.990297 1.067728
vt 1.528482 1.067727
vt 1.243753 1.433121
vt 1.447406 1.433121
vt 1.528605 1.433121
vt 1.073316 1.433121
vt 1.173800 1.433121
vt 1.071496 1.067728
vt 1.242143 1.433121
vt 1.528482 1.935716
vt 1.243753 1.570323
vt 1.690879 1.935716
vt 0.990297 1.935716
vt 1.071496 1.935716
vt 1.242143 1.570323
vt 1.173800 1.570323
vt 1.528605 1.570323
vt 1.073316 1.570323
vt 1.447406 1.570323
vn 0.001481 0.999999 -0.000168
vn 0.227390 0.938502 0.259823
vn 0.205697 0.942458 0.263556
vn 0.001509 0.999999 -0.000145
vn 0.408190 0.783751 0.468098
vn 0.381060 0.785059 0.488339
vn -0.001518 -0.999999 0.000098
vn -0.001507 -0.999999 0.000219
vn -0.001506 -0.999999 0.000282
vn -0.001507 -0.999999 0.000163
vn -0.001496 -0.999999 0.000366
vn -0.001504 -0.999999 0.000419
vn 0.654907 0.000000 0.755709
vn 0.611849 0.000000 0.790975
vn 0.611931 0.000000 0.790911
vn 0.654907 0.000000 0.755709
vn -0.615951 -0.000583 -0.787784
vn -0.616090 -0.000583 -0.787675
vn -0.658772 -0.000619 -0.752343
vn -0.658772 -0.000619 -0.752343
vn 0.000013 0.000000 1.000000
vn -0.000007 0.000000 1.000000
vn -0.000001 0.000000 1.000000
vn 0.000013 0.000000 1.000000
vn -0.000031 0.000000 1.000000
vn -0.000031 0.000000 1.000000
vn 0.000081 1.000000 -0.000086
vn 0.340077 0.940351 0.009367
vn 0.339827 0.940088 0.027417
vn 0.000089 1.000000 -0.000075
vn 0.624520 0.780817 0.017285
vn 0.625160 0.778934 0.049363
vn -0.000096 -1.000000 0.000077
vn -0.000128 -1.000000 0.000181
vn -0.000046 -1.000000 0.000213
vn -0.000084 -1.000000 0.000087
vn -0.000160 -1.000000 0.000312
vn -0.000001 -1.000000 0.000366
vn 0.999986 0.000000 0.005220
vn 0.997837 0.000000 0.065740
vn 0.997840 0.000000 0.065694
vn 0.999986 0.000000 0.005220
vn -0.995615 -0.000001 -0.093546
vn -0.995615 -0.000001 -0.093551
vn -0.999196 -0.000000 -0.040082
vn -0.999196 -0.000000 -0.040082
vn -0.034531 0.002838 -0.999400
vn -0.075468 0.001311 -0.997147
vn -0.075573 0.001307 -0.997139
vn -0.034531 0.002838 -0.999400
vn -0.003418 -0.999994 0.000337
vn -0.003681 -0.999993 0.000165
vn -0.001967 -0.999998 0.000072
vn -0.001850 -0.999998 0.000149
vn -0.004001 -0.999992 -0.000044
vn -0.002113 -0.999998 -0.000025
vn 0.077539 0.000000 0.996989
vn 0.077388 0.000000 0.997001
vn 0.026674 0.000000 0.999644
vn 0.026674 0.000000 0.999644
vn 0.029553 0.939724 0.340655
vn 0.051349 0.782342 0.620729
vn 0.025946 0.782460 0.622160
vn 0.016184 0.940648 0.338998
vn 0.002080 0.999998 -0.000274
vn 0.003957 0.999992 -0.000601
vn -0.237658 -0.000012 -0.971349
vn -0.237600 -0.000012 -0.971363
vn -0.331933 -0.000011 -0.943303
vn -0.332005 -0.000011 -0.943278
vn 0.001246 0.999999 -0.000064
vn 0.113634 0.941757 0.316513
vn 0.083693 0.940836 0.328364
vn 0.001024 0.999999 -0.000022
vn 0.207134 0.786438 0.581903
vn 0.151382 0.784767 0.601019
vn 0.336675 0.000000 0.941621
vn 0.336612 0.000000 0.941644
vn 0.246766 0.000000 0.969075
vn 0.246813 0.000000 0.969063
vn -0.000972 -1.000000 0.000000
vn -0.000919 -1.000000 0.000004
vn -0.001144 -0.999999 0.000041
vn -0.001189 -0.999999 0.000015
vn -0.001017 -1.000000 -0.000003
vn -0.001226 -0.999999 -0.000007
vn -0.150933 -0.000013 -0.988544
vn -0.150897 -0.000013 -0.988550
vn -0.000714 -1.000000 -0.000006
vn -0.000672 -1.000000 -0.000006
vn -0.000625 -1.000000 -0.000006
vn 0.160664 0.000000 0.987009
vn 0.160695 0.000000 0.987004
vn 0.098457 0.782937 0.614261
vn 0.054759 0.940007 0.336732
vn 0.000714 1.000000 -0.000007
vn -0.427821 -0.000010 -0.903863
vn -0.427899 -0.000010 -0.903826
vn -0.001366 -0.999999 0.000057
vn -0.001408 -0.999999 -0.000004
vn -0.001314 -0.999999 0.000130
vn 0.429066 0.000000 0.903273
vn 0.428991 0.000000 0.903309
vn 0.144661 0.942383 0.301643
vn 0.265627 0.787122 0.556670
vn 0.001388 0.999999 -0.000102
vn -0.523969 -0.000278 -0.851738
vn -0.524047 -0.000278 -0.851689
vn 0.001488 0.999999 -0.000118
vn 0.175936 0.942400 0.284481
vn 0.324247 0.786494 0.525634
vn 0.521798 0.000000 0.853069
vn 0.521715 0.000000 0.853120
vn -0.001441 -0.999999 0.000252
vn -0.001483 -0.999999 0.000124
vn -0.001518 -0.999999 0.000020
vn -0.736891 -0.000202 -0.676011
vn -0.772330 -0.000056 -0.635221
vn -0.772259 -0.000057 -0.635308
vn -0.736891 -0.000202 -0.676011
vn -0.001410 -0.999999 0.000270
vn -0.001427 -0.999999 0.000369
vn -0.001355 -0.999999 0.000402
vn -0.001332 -0.999999 0.000301
vn -0.001450 -0.999999 0.000501
vn -0.001389 -0.999999 0.000526
vn 0.772005 0.000000 0.635616
vn 0.771943 0.000000 0.635692
vn 0.735310 0.000000 0.677731
vn 0.735310 0.000000 0.677732
vn 0.260685 0.941410 0.213989
vn 0.483589 0.780908 0.395380
vn 0.459616 0.781626 0.421681
vn 0.240859 0.945262 0.220152
vn 0.001305 0.999999 -0.000302
vn 0.001384 0.999999 -0.000271
vn -0.886798 0.000270 -0.462158
vn -0.886823 0.000270 -0.462109
vn -0.927947 0.000267 -0.372712
vn -0.927935 0.000267 -0.372742
vn 0.000649 1.000000 -0.000296
vn 0.318640 0.939667 0.124474
vn 0.303395 0.940073 0.155611
vn 0.000893 1.000000 -0.000342
vn 0.588606 0.775599 0.228012
vn 0.561153 0.776817 0.285765
vn 0.932831 0.000000 0.360313
vn 0.932810 0.000000 0.360368
vn 0.890720 0.000000 0.454553
vn 0.890754 0.000000 0.454487
vn -0.000980 -0.999999 0.000435
vn -0.001062 -0.999999 0.000545
vn -0.000855 -1.000000 0.000497
vn -0.000752 -1.000000 0.000389
vn -0.000916 -1.000000 0.000346
vn -0.000670 -1.000000 0.000302
vn -0.835011 0.000168 -0.550233
vn -0.835056 0.000168 -0.550165
vn -0.001144 -0.999999 0.000346
vn -0.001187 -0.999999 0.000440
vn -0.001246 -0.999999 0.000555
vn 0.837093 0.000000 0.547060
vn 0.837141 0.000000 0.546987
vn 0.526020 0.778688 0.341975
vn 0.283954 0.940691 0.185660
vn 0.001118 0.999999 -0.000345
vn -0.959153 0.000172 -0.282889
vn -0.959148 0.000173 -0.282903
vn -0.000522 -1.000000 0.000309
vn -0.000426 -1.000000 0.000222
vn -0.000640 -1.000000 0.000417
vn 0.963965 0.000000 0.266031
vn 0.963953 0.000000 0.266074
vn 0.329588 0.939551 0.092827
vn 0.608434 0.775242 0.169727
vn 0.000407 1.000000 -0.000216
vn -0.981331 0.000051 -0.192328
vn -0.981331 0.000051 -0.192325
vn 0.000193 1.000000 -0.000116
vn 0.336545 0.939678 0.061175
vn 0.620972 0.775842 0.111635
vn 0.985000 0.000000 0.172555
vn 0.984995 0.000000 0.172586
vn -0.000431 -1.000000 0.000310
vn -0.000309 -1.000000 0.000206
vn -0.000208 -1.000000 0.000120
s 1
g Outside_bend
usemtl initialShadingGroup
f 4/11/1 5/12/2 54/105/3 49/98/4
f 5/5/2 6/4/5 53/104/6 54/106/3
s 2
f 50/100/7 51/101/8 2/17/9 1/18/10
f 51/101/8 52/102/11 3/20/12 2/17/9
s 3
f 3/1/13 52/103/14 53/104/15 6/4/16
s 4
f 49/97/17 50/99/18 1/8/19 4/9/20
s 5
f 13/21/21 14/22/22 17/23/23 16/24/24
f 14/22/22 15/25/25 18/26/26 17/23/23
s 6
f 16/27/27 17/28/28 96/175/29 91/168/30
f 17/31/28 18/32/31 95/174/32 96/176/29
s 7
f 92/170/33 93/171/34 14/37/35 13/38/36
f 93/171/34 94/172/37 15/40/38 14/37/35
s 8
f 15/41/39 94/173/40 95/174/41 18/32/42
s 9
f 91/167/43 92/169/44 13/44/45 16/45/46
s 4
f 10/7/47 97/177/48 98/179/49 7/10/50
s 2
f 10/15/51 11/16/52 102/186/53 97/178/54
f 11/16/52 12/19/55 101/184/56 102/186/53
s 3
f 100/183/57 101/185/58 12/2/59 9/3/60
s 1
f 99/182/61 100/183/62 9/3/63 8/6/64
f 98/180/65 99/181/61 8/13/64 7/14/66
s 4
f 31/67/67 32/69/68 20/49/69 19/47/70
s 1
f 19/48/71 24/55/72 36/75/73 31/68/74
f 24/56/72 23/54/75 35/74/76 36/76/73
s 3
f 23/54/77 22/53/78 34/73/79 35/74/80
s 2
f 33/71/81 34/72/82 22/52/83 21/51/84
f 32/70/85 33/71/81 21/51/84 20/50/86
s 4
f 26/59/87 25/57/88 32/69/68 31/67/67
s 2
f 25/58/89 30/66/90 33/71/81 32/70/85
f 30/66/90 29/64/91 34/72/82 33/71/81
s 3
f 35/74/80 34/73/79 29/65/92 28/63/93
s 1
f 36/76/73 35/74/76 28/63/94 27/62/95
f 31/68/74 36/75/73 27/61/95 26/60/96
s 4
f 19/47/70 20/49/69 43/87/97 44/89/98
s 2
f 20/50/86 21/51/84 48/96/99 43/88/100
f 21/51/84 22/52/83 47/94/101 48/96/99
s 3
f 46/93/102 47/95/103 22/53/78 23/54/77
s 1
f 45/92/104 46/93/105 23/54/75 24/56/72
f 44/90/106 45/91/104 24/55/72 19/48/71
s 4
f 44/89/98 43/87/97 38/79/107 37/77/108
s 1
f 37/78/109 42/85/110 45/91/104 44/90/106
f 42/86/110 41/84/111 46/93/105 45/92/104
s 3
f 41/84/112 40/83/113 47/95/103 46/93/102
s 2
f 48/96/99 47/94/101 40/82/114 39/81/115
f 43/88/100 48/96/99 39/81/115 38/80/116
s 4
f 37/77/108 38/79/107 50/99/18 49/97/17
s 2
f 38/80/116 39/81/115 51/101/8 50/100/7
f 39/81/115 40/82/114 52/102/11 51/101/8
s 3
f 53/104/15 52/103/14 40/83/113 41/84/112
s 1
f 54/106/3 53/104/6 41/84/111 42/86/110
f 49/98/4 54/105/3 42/85/110 37/78/109
s 9
f 1/43/117 85/157/118 86/159/119 4/46/120
s 7
f 1/35/121 2/36/122 90/166/123 85/158/124
f 2/36/122 3/39/125 89/164/126 90/166/123
s 8
f 88/163/127 89/165/128 3/42/129 6/33/130
s 6
f 87/162/131 88/163/132 6/33/133 5/34/134
f 86/160/135 87/161/131 5/29/134 4/30/136
s 9
f 67/127/137 68/129/138 56/109/139 55/107/140
s 6
f 55/108/141 60/115/142 72/135/143 67/128/144
f 60/116/142 59/114/145 71/134/146 72/136/143
s 8
f 59/114/147 58/113/148 70/133/149 71/134/150
s 7
f 69/131/151 70/132/152 58/112/153 57/111/154
f 68/130/155 69/131/151 57/111/154 56/110/156
s 9
f 62/119/157 61/117/158 68/129/138 67/127/137
s 7
f 61/118/159 66/126/160 69/131/151 68/130/155
f 66/126/160 65/124/161 70/132/152 69/131/151
s 8
f 71/134/150 70/133/149 65/125/162 64/123/163
s 6
f 72/136/143 71/134/146 64/123/164 63/122/165
f 67/128/144 72/135/143 63/121/165 62/120/166
s 9
f 55/107/140 56/109/139 79/147/167 80/149/168
s 7
f 56/110/156 57/111/154 84/156/169 79/148/170
f 57/111/154 58/112/153 83/154/171 84/156/169
s 8
f 82/153/172 83/155/173 58/113/148 59/114/147
s 6
f 81/152/174 82/153/175 59/114/145 60/116/142
f 80/150/176 81/151/174 60/115/142 55/108/141
s 9
f 80/149/168 79/147/167 74/139/177 73/137/178
s 6
f 73/138/179 78/145/180 81/151/174 80/150/176
f 78/146/180 77/144/181 82/153/175 81/152/174
s 8
f 77/144/182 76/143/183 83/155/173 82/153/172
s 7
f 84/156/169 83/154/171 76/142/184 75/141/185
f 79/148/170 84/156/169 75/141/185 74/140/186
s 9
f 86/159/119 85/157/118 61/117/158 62/119/157
s 6
f 62/120/166 63/121/165 87/161/131 86/160/135
f 63/122/165 64/123/164 88/163/132 87/162/131
s 8
f 64/123/163 65/125/162 89/165/128 88/163/127
s 7
f 90/166/123 89/164/126 65/124/161 66/126/160
f 85/158/124 90/166/123 66/126/160 61/118/159
s 9
f 73/137/178 74/139/177 92/169/44 91/167/43
s 7
f 74/140/186 75/141/185 93/171/34 92/170/33
f 75/141/185 76/142/184 94/172/37 93/171/34
s 8
f 95/174/41 94/173/40 76/143/183 77/144/182
s 6
f 96/176/29 95/174/32 77/144/181 78/146/180
f 91/168/30 96/175/29 78/145/180 73/138/179
s 4
f 98/179/49 97/177/48 25/57/88 26/59/87
s 1
f 26/60/96 27/61/95 99/181/61 98/180/65
f 27/62/95 28/63/94 100/183/62 99/182/61
s 3
f 28/63/93 29/65/92 101/185/58 100/183/57
s 2
f 102/186/53 101/184/56 29/64/91 30/66/90
f 97/178/54 102/186/53 30/66/90 25/58/89
