# This file uses centimeters as units for non-parametric coordinates.

mtllib Wall_HP.mtl
g default
v -0.996171 0.014290 -0.028579
v -0.985710 0.003829 -0.028579
v -0.971421 0.000000 -0.028579
v -0.971421 0.003829 -0.014290
v -0.971421 0.014290 -0.003829
v -0.971421 0.028579 0.000000
v -0.985710 0.028579 -0.003829
v -0.996171 0.028579 -0.014290
v -1.000000 0.028579 -0.028579
v -0.506736 0.000000 -0.028579
v -0.493264 0.000000 -0.028579
v -0.479791 0.000000 -0.028579
v -0.479792 0.003829 -0.014290
v -0.479792 0.014290 -0.003829
v -0.479791 0.028579 0.000000
v -0.493264 0.028579 0.000000
v -0.506736 0.028579 0.000000
v -0.520209 0.028579 0.000000
v -0.520209 0.014290 -0.003829
v -0.520209 0.003829 -0.014290
v -0.520209 0.000000 -0.028579
v -0.494917 0.993975 -0.028372
v -0.507766 0.998474 -0.028399
v -0.521308 1.000000 -0.028435
v -0.520958 0.996176 -0.014214
v -0.520553 0.985717 -0.003806
v -0.520203 0.971429 0.000000
v -0.506378 0.968375 0.000000
v -0.494428 0.959560 0.000000
v -0.479607 0.946752 0.000000
v -0.480928 0.966762 -0.003756
v -0.482320 0.981399 -0.014140
v -0.483409 0.986727 -0.028355
v -0.985711 0.996171 -0.028581
v -0.996171 0.985710 -0.028581
v -1.000000 0.971421 -0.028579
v -0.996171 0.971421 -0.014290
v -0.985710 0.971421 -0.003829
v -0.971421 0.971421 0.000000
v -0.971421 0.985710 -0.003829
v -0.971421 0.996171 -0.014290
v -0.971421 1.000000 -0.028579
v -0.014290 0.003829 -0.028572
v -0.003829 0.014290 -0.028572
v 0.000000 0.028579 -0.028579
v -0.003829 0.028579 -0.014290
v -0.014290 0.028579 -0.003829
v -0.028579 0.028579 0.000000
v -0.028590 0.014290 -0.003829
v -0.028590 0.003829 -0.014290
v -0.028579 0.000000 -0.028579
v -0.002119 0.591081 -0.029334
v -0.008288 0.603917 -0.029334
v -0.017962 0.614370 -0.029320
v -0.020990 0.610950 -0.014447
v -0.024458 0.600834 -0.003681
v -0.027407 0.586827 0.000000
v -0.014627 0.580382 -0.003682
v -0.004561 0.576771 -0.014447
v 0.000000 0.576997 -0.029320
v -0.494431 0.959501 -3.000032
v -0.506433 0.968270 -3.000033
v -0.520287 0.971309 -3.000033
v -0.520631 0.985653 -2.996218
v -0.521026 0.996152 -2.985783
v -0.521368 0.999992 -2.971527
v -0.507797 0.998466 -2.971583
v -0.494930 0.993967 -2.971634
v -0.483414 0.986719 -2.971678
v -0.482326 0.981391 -2.985893
v -0.480934 0.966755 -2.996276
v -0.479613 0.946745 -3.000031
v -0.985722 0.971406 -2.996211
v -0.996183 0.971406 -2.985750
v -1.000012 0.971405 -2.971460
v -0.996183 0.985694 -2.971460
v -0.985722 0.996156 -2.971460
v -0.971433 0.999985 -2.971461
v -0.971433 0.996156 -2.985751
v -0.971432 0.985695 -2.996211
v -0.971432 0.971405 -3.000039
v -0.004572 0.576986 -2.985753
v -0.014640 0.580491 -2.996384
v -0.027407 0.586827 -3.000002
v -0.024382 0.600755 -2.996386
v -0.020829 0.610806 -2.985754
v -0.017735 0.614188 -2.971052
v -0.008184 0.603867 -2.971044
v -0.002092 0.591193 -2.971044
v 0.000000 0.577288 -2.971051
v -0.996171 0.028579 -2.985712
v -0.985711 0.028579 -2.996172
v -0.971421 0.028579 -3.000001
v -0.971421 0.014290 -2.996172
v -0.971421 0.003829 -2.985711
v -0.971421 0.000000 -2.971421
v -0.985711 0.003829 -2.971421
v -0.996171 0.014290 -2.971421
v -1.000000 0.028579 -2.971422
v -0.506736 0.028579 -3.000001
v -0.493264 0.028579 -3.000001
v -0.479792 0.028579 -3.000001
v -0.479793 0.014289 -2.996172
v -0.479792 0.003829 -2.985711
v -0.479791 0.000000 -2.971421
v -0.493264 0.000000 -2.971421
v -0.506736 0.000000 -2.971421
v -0.520209 0.000000 -2.971421
v -0.520208 0.003829 -2.985711
v -0.520208 0.014289 -2.996172
v -0.520209 0.028579 -3.000001
v -0.014290 0.028579 -2.996171
v -0.003829 0.028579 -2.985710
v 0.000000 0.028579 -2.971421
v -0.003829 0.014290 -2.971424
v -0.014290 0.003829 -2.971424
v -0.028579 0.000000 -2.971421
v -0.028590 0.003829 -2.985710
v -0.028590 0.014290 -2.996171
v -0.028579 0.028579 -3.000000
v -0.994022 0.016231 -0.016231
v -0.983769 0.005978 -0.016231
v -0.983769 0.016231 -0.005978
v -0.506737 0.003829 -0.014290
v -0.493261 0.003829 -0.014290
v -0.493261 0.014290 -0.003829
v -0.506737 0.014290 -0.003829
v -0.494728 0.989404 -0.014174
v -0.507549 0.994468 -0.014191
v -0.506829 0.983441 -0.003798
v -0.494422 0.976798 -0.003789
v -0.983770 0.994022 -0.016231
v -0.994022 0.983769 -0.016232
v -0.983770 0.983769 -0.005978
v -0.016228 0.005978 -0.016229
v -0.005974 0.016232 -0.016228
v -0.016232 0.016230 -0.005978
v -0.005225 0.589231 -0.016445
v -0.011671 0.602643 -0.016445
v -0.014418 0.593070 -0.005788
v -0.494429 0.976764 -2.996239
v -0.506876 0.983384 -2.996228
v -0.507582 0.994446 -2.985816
v -0.494735 0.989389 -2.985845
v -0.983781 0.983754 -2.994062
v -0.994034 0.983754 -2.983809
v -0.983781 0.994006 -2.983809
v -0.005212 0.589323 -2.983783
v -0.014386 0.593085 -2.994312
v -0.011591 0.602595 -2.983783
v -0.994022 0.016231 -2.983770
v -0.983770 0.016231 -2.994023
v -0.983770 0.005978 -2.983770
v -0.506737 0.014289 -2.996172
v -0.493261 0.014289 -2.996172
v -0.493261 0.003829 -2.985711
v -0.506737 0.003829 -2.985711
v -0.016232 0.016230 -2.994021
v -0.005974 0.016232 -2.983770
v -0.016228 0.005978 -2.983769
vt 0.607121 0.688679
vt 0.536195 0.705890
vt 0.711416 0.688679
vt 0.720758 0.688679
vt 0.649832 0.705890
vt 0.536195 0.923821
vt 0.112641 0.008429
vt 0.649874 0.918119
vt 0.008601 0.008462
vt 0.825052 0.688679
vt 0.754397 0.834926
vt 0.369349 0.688687
vt 0.496112 0.688516
vt 0.008598 0.688689
vt 0.773497 0.819538
vt 0.590816 0.008411
vt 0.504708 0.008556
vt 0.131577 0.688680
vt 0.773475 0.923816
vt 0.496179 0.008556
vt 0.369349 0.008471
vt 0.711416 0.008462
vt 0.991402 0.923814
vt 0.991402 0.819519
vt 0.825052 0.008462
vt 0.991402 0.810177
vt 0.991402 0.705883
vt 0.640490 0.705890
vt 0.640491 0.923823
vt 0.754126 0.705890
vt 0.112627 0.688704
vt 0.590818 0.688740
vt 0.504750 0.688517
vt 0.607121 0.008462
vt 0.720758 0.008462
vt 0.131577 0.008463
vt 0.349508 0.008463
vt 0.349504 0.688689
vt 0.779175 0.810136
vt 0.862367 0.705612
vt 0.600515 0.692337
vt 0.124971 0.004806
vt 0.603818 0.690518
vt 0.535890 0.699285
vt 0.606816 0.695285
vt 0.536054 0.702558
vt 0.532895 0.704114
vt 0.127999 0.001857
vt 0.529589 0.702313
vt 0.714530 0.688706
vt 0.717644 0.688706
vt 0.649844 0.699285
vt 0.720770 0.695285
vt 0.650553 0.702531
vt 0.647250 0.705851
vt 0.644133 0.705851
vt 0.641198 0.702531
vt 0.711402 0.695285
vt 0.640476 0.699285
vt 0.117566 0.005317
vt 0.593886 0.691833
vt 0.115093 0.006871
vt 0.638912 0.930427
vt 0.111317 0.001857
vt 0.639691 0.927134
vt 0.643640 0.923131
vt 0.646402 0.921095
vt 0.647699 0.923014
vt 0.591059 0.695293
vt 0.646574 0.927601
vt 0.005297 0.006624
vt 0.356114 0.004806
vt 0.001995 0.004806
vt 0.529589 0.927399
vt 0.353086 0.001857
vt 0.532896 0.925597
vt 0.536014 0.927154
vt 0.008216 0.001857
vt 0.535811 0.930427
vt 0.828356 0.690519
vt 0.362743 0.692345
vt 0.831658 0.692338
vt 0.759518 0.701712
vt 0.365171 0.695293
vt 0.756640 0.703748
vt 0.754258 0.702554
vt 0.825354 0.695285
vt 0.754428 0.699285
vt 0.498732 0.688548
vt 0.501610 0.688549
vt 0.703204 0.814340
vt 0.477799 0.695293
vt 0.727228 0.823969
vt 0.729929 0.819997
vt 0.470111 0.695293
vt 0.707048 0.806652
vt 0.776035 0.813612
vt 0.774033 0.816393
vt 0.110972 0.695293
vt 0.766867 0.821442
vt 0.111781 0.691977
vt 0.115093 0.688369
vt 0.593884 0.009115
vt 0.117565 0.688036
vt 0.591547 0.005166
vt 0.769394 0.811691
vt 0.591357 0.001857
vt 0.353082 0.695295
vt 0.769897 0.930422
vt 0.351323 0.691993
vt 0.001992 0.688975
vt 0.356110 0.688975
vt 0.005290 0.688830
vt 0.006813 0.691983
vt 0.766869 0.927440
vt 0.004974 0.695295
vt 0.496816 0.005131
vt 0.862389 0.699277
vt 0.498362 0.001865
vt 0.503349 0.001865
vt 0.857402 0.701677
vt 0.504297 0.005129
vt 0.501870 0.008559
vt 0.499023 0.008559
vt 0.129758 0.691984
vt 0.994980 0.930420
vt 0.127999 0.695285
vt 0.603543 0.001857
vt 0.998008 0.927391
vt 0.605363 0.005177
vt 0.603813 0.008321
vt 0.124971 0.688966
vt 0.600515 0.008177
vt 0.991483 0.816406
vt 0.991485 0.813291
vt 0.720911 0.001857
vt 0.998008 0.810024
vt 0.723664 0.013304
vt 0.718332 0.010444
vt 0.715218 0.010444
vt 0.714169 0.013302
vt 0.998008 0.819672
vt 0.711263 0.001857
vt 0.365790 0.001865
vt 0.994961 0.699277
vt 0.367519 0.005166
vt 0.831658 0.008177
vt 0.362743 0.008184
vt 0.828356 0.008321
vt 0.826814 0.005177
vt 0.998008 0.702307
vt 0.828628 0.001857
vt 0.529589 0.699285
vt 0.124971 0.001857
vt 0.600515 0.695285
vt 0.532950 0.699285
vt 0.603876 0.695285
vt 0.533285 0.701842
vt 0.643598 0.699285
vt 0.714525 0.695285
vt 0.646722 0.699285
vt 0.717648 0.695285
vt 0.667908 0.700900
vt 0.664789 0.700900
vt 0.645161 0.930427
vt 0.593886 0.695293
vt 0.117566 0.001857
vt 0.642005 0.930427
vt 0.114411 0.001857
vt 0.642559 0.926845
vt 0.645171 0.925648
vt 0.532908 0.930427
vt 0.005313 0.001857
vt 0.529589 0.930427
vt 0.001995 0.001857
vt 0.356114 0.001857
vt 0.533265 0.927870
vt 0.757371 0.699285
vt 0.828297 0.695285
vt 0.760732 0.699285
vt 0.831658 0.695285
vt 0.362743 0.695293
vt 0.756803 0.701734
vt 0.705839 0.809071
vt 0.472530 0.695293
vt 0.704414 0.811920
vt 0.475378 0.695293
vt 0.638976 0.771936
vt 0.117565 0.695293
vt 0.593884 0.001857
vt 0.766867 0.814850
vt 0.114250 0.695293
vt 0.766867 0.818164
vt 0.114559 0.691670
vt 0.593884 0.005651
vt 0.117565 0.691499
vt 0.001992 0.695295
vt 0.766869 0.930422
vt 0.356110 0.695295
vt 0.001992 0.691924
vt 0.356110 0.691924
vt 0.004555 0.691596
vt 0.499316 0.005532
vt 0.501429 0.001865
vt 0.859322 0.699277
vt 0.502155 0.005549
vt 0.600515 0.005228
vt 0.124971 0.691914
vt 0.600515 0.001857
vt 0.124971 0.695285
vt 0.998008 0.930419
vt 0.603085 0.005558
vt 0.714479 0.001857
vt 0.998008 0.816456
vt 0.717696 0.001857
vt 0.998008 0.813239
vt 0.801503 0.246430
vt 0.798344 0.246434
vt 0.831658 0.001857
vt 0.998008 0.699277
vt 0.362743 0.001865
vt 0.831658 0.005229
vt 0.362743 0.005236
vt 0.829089 0.005559
vn -0.008215 -0.999965 0.001285
vn -0.258729 -0.965949 0.000913
vn -0.258729 -0.965949 -0.000912
vn -0.008215 -0.999965 -0.001285
vn -0.707108 -0.707105 0.000962
vn -0.866032 -0.499987 0.000970
vn -0.866035 -0.499983 -0.000970
vn -0.707108 -0.707105 -0.000962
vn -0.999991 -0.004001 0.001292
vn -0.999991 -0.004001 -0.001288
vn -0.008195 -0.003969 0.999959
vn -0.005826 -0.258233 0.966065
vn 0.000000 -0.500000 0.866026
vn 0.000000 -0.003999 0.999992
vn -0.006134 -0.707094 0.707093
vn -0.006192 -0.866061 0.499900
vn 0.000000 -0.866026 0.500000
vn 0.000000 -0.999999 0.001295
vn -0.866047 -0.003003 0.499955
vn -0.866046 0.003003 0.499955
vn -0.999991 0.003989 0.001292
vn -0.499954 -0.003003 0.866047
vn -0.499953 0.003003 0.866047
vn -0.008195 0.003956 0.999959
vn 0.000000 -0.999999 0.001295
vn -0.000000 -0.999999 0.001295
vn 0.000000 -0.999999 -0.001295
vn 0.000000 -0.999999 -0.001295
vn 0.000000 -0.999999 0.001295
vn -0.000000 -0.999999 -0.001295
vn -0.000000 -0.999999 -0.001295
vn -0.000000 -0.005037 0.999987
vn -0.000000 -0.258819 0.965926
vn 0.005822 -0.258236 0.966064
vn 0.006096 -0.005085 0.999969
vn 0.000000 -0.707107 0.707107
vn 0.000000 -0.866024 0.500003
vn 0.006187 -0.866090 0.499850
vn 0.006133 -0.707092 0.707095
vn 0.008218 -0.999965 0.001284
vn -0.000000 -0.004107 0.999992
vn 0.002246 0.004942 0.999985
vn 0.000026 0.003963 0.999992
vn -0.000000 -0.004070 0.999992
vn 0.003263 0.004314 0.999985
vn 0.008983 0.011250 0.999896
vn 0.003289 0.999994 0.001309
vn 0.222572 0.974915 0.001298
vn 0.222679 0.974891 -0.001314
vn 0.003291 0.999994 -0.001319
vn 0.434339 0.900749 0.001324
vn 0.434454 0.900693 -0.001336
vn 0.622725 0.782440 0.001126
vn 0.622728 0.782438 -0.001131
vn 0.002308 0.495669 0.868509
vn -0.006260 0.498870 0.866655
vn 0.002646 0.706047 0.708160
vn -0.006235 0.706270 0.707915
vn 0.003446 0.965770 0.259378
vn -0.008241 0.999965 0.001280
vn -0.005918 0.965952 0.258653
vn 0.563905 0.706359 0.427865
vn 0.540574 0.670352 0.508338
vn 0.627375 0.778716 0.001335
vn 0.377356 0.471137 0.797266
vn 0.292557 0.361097 0.885449
vn 0.005168 0.002538 0.999983
vn -0.866043 0.499969 0.000971
vn -0.866039 0.499976 -0.000969
vn -0.999991 0.003990 -0.001288
vn -0.707115 0.707098 0.000961
vn -0.707115 0.707098 -0.000963
vn -0.258736 0.965948 0.000908
vn -0.008242 0.999965 -0.001291
vn -0.258736 0.965948 -0.000916
vn 0.999976 -0.006798 0.001409
vn 0.866013 -0.500021 0.000970
vn 0.866023 -0.500003 -0.000970
vn 0.999976 -0.006795 -0.001410
vn 0.500020 -0.866013 0.000971
vn 0.500003 -0.866023 -0.000970
vn 0.008216 -0.999965 -0.001284
vn 0.266602 -0.005333 0.963792
vn 0.469627 0.002807 0.882860
vn 0.718644 -0.004372 0.695365
vn 0.867204 -0.004233 0.497935
vn 0.859252 0.003120 0.511543
vn 0.999992 0.003736 0.001399
vn 0.826776 0.562529 0.001255
vn 0.826790 0.562509 -0.001207
vn 0.627377 0.778715 -0.001337
vn 0.955743 0.294201 0.001254
vn 0.955734 0.294229 -0.001207
vn 0.999992 0.003739 -0.001398
vn 0.000033 0.003931 -0.999992
vn 0.002235 0.004917 -0.999985
vn 0.000009 -0.004135 -0.999992
vn 0.000006 -0.004037 -0.999992
vn 0.003270 0.004288 -0.999986
vn 0.000019 -0.004100 -0.999992
vn 0.008928 0.011132 -0.999898
vn 0.000024 -0.005059 -0.999987
vn 0.003471 0.965717 -0.259575
vn -0.005876 0.965903 -0.258839
vn 0.002723 0.705784 -0.708422
vn 0.002374 0.495464 -0.868625
vn -0.006170 0.498616 -0.866801
vn -0.006137 0.706023 -0.708162
vn -0.008190 0.003925 -0.999959
vn 0.375717 0.469262 -0.799143
vn 0.291307 0.359717 -0.886422
vn 0.005169 0.002505 -0.999983
vn 0.563106 0.705611 -0.430145
vn 0.539721 0.669570 -0.510272
vn -0.965996 0.002803 -0.258541
vn -0.965996 -0.002847 -0.258541
vn -0.707110 0.002939 -0.707097
vn -0.499960 0.002962 -0.866043
vn -0.499958 -0.003044 -0.866044
vn -0.707110 -0.003013 -0.707097
vn -0.008189 -0.004008 -0.999959
vn 0.467788 0.002640 -0.883837
vn 0.264618 -0.005393 -0.964338
vn 0.006069 -0.005108 -0.999969
vn 0.858102 0.002915 -0.513471
vn 0.865853 -0.004399 -0.500280
vn 0.716454 -0.004539 -0.697619
vn -0.006192 -0.866065 -0.499892
vn 0.000000 -0.866029 -0.499994
vn -0.006192 -0.499919 -0.866050
vn -0.000000 -0.500021 -0.866014
vn 0.000001 -0.866026 -0.500000
vn 0.006190 -0.866092 -0.499846
vn 0.000002 -0.500012 -0.866019
vn 0.006192 -0.499858 -0.866085
vn -0.946104 -0.229005 0.229007
vn -0.707842 -0.499480 0.499480
vn -0.499479 -0.707843 0.499479
vn -0.229007 -0.946104 0.229007
vn -0.499480 -0.499479 0.707842
vn -0.229007 -0.229007 0.946103
vn 0.000000 -0.866021 0.500007
vn -0.000000 -0.866025 0.500000
vn 0.000000 -0.707107 0.707107
vn 0.000000 -0.258819 0.965926
vn 0.000000 -0.500006 0.866022
vn 0.439843 0.858074 0.265043
vn 0.232968 0.935207 0.266673
vn 0.184734 0.673982 0.715277
vn 0.160783 0.487241 0.858339
vn 0.270304 0.428216 0.862303
vn 0.337016 0.612343 0.715161
vn -0.229028 0.946100 0.229001
vn -0.499506 0.707844 0.499450
vn -0.707844 0.499506 0.499451
vn -0.946101 0.229023 0.229003
vn -0.499497 0.499494 0.707820
vn -0.229020 0.229020 0.946097
vn 0.228840 -0.946114 0.229129
vn 0.499279 -0.707866 0.499646
vn 0.707787 -0.499380 0.499657
vn 0.946176 -0.228799 0.228913
vn 0.499179 -0.499545 0.708008
vn 0.228946 -0.229121 0.946091
vn 0.878612 0.231201 0.417835
vn 0.729399 0.541634 0.417863
vn 0.575403 0.276603 0.769676
vn 0.268818 0.428082 -0.862834
vn 0.159408 0.486700 -0.858902
vn 0.183382 0.673610 -0.715976
vn 0.232003 0.935330 -0.267082
vn 0.438952 0.858447 -0.265311
vn 0.335271 0.612433 -0.715905
vn -0.228996 0.228977 -0.946113
vn -0.499488 0.499472 -0.707841
vn -0.707855 0.499479 -0.499462
vn -0.946108 0.229002 -0.228993
vn -0.499496 0.707836 -0.499471
vn -0.229020 0.946100 -0.229010
vn 0.876436 0.229985 -0.423045
vn 0.570334 0.274152 -0.774313
vn 0.727093 0.540684 -0.423080
vn -0.946102 -0.229019 -0.229002
vn -0.707837 -0.499489 -0.499477
vn -0.499480 -0.499488 -0.707836
vn -0.228996 -0.229040 -0.946098
vn -0.499484 -0.707844 -0.499473
vn -0.229008 -0.946103 -0.229006
vn 0.000001 -0.500023 -0.866012
vn 0.000000 -0.500018 -0.866015
vn 0.000000 -0.866031 -0.499990
vn 0.000004 -0.866028 -0.499996
vn 0.228963 -0.229150 -0.946079
vn 0.499200 -0.499576 -0.707971
vn 0.707785 -0.499427 -0.499612
vn 0.946169 -0.228844 -0.228901
vn 0.499321 -0.707874 -0.499593
vn 0.228885 -0.946106 -0.229117
s 1
g Wall_HP
usemtl initialShadingGroup
f 3/1/1 2/43/2 97/131/3 96/34/4
f 2/43/5 1/41/6 98/133/7 97/131/8
f 1/42/6 9/36/9 99/18/10 98/132/7
f 6/2/11 5/46/12 19/57/13 18/28/14
f 5/46/15 4/44/16 20/59/17 19/57/13
f 4/45/16 3/1/1 21/3/18 20/58/17
f 9/36/9 8/48/19 37/75/20 36/37/21
f 8/49/19 7/47/22 38/76/23 37/74/20
f 7/47/22 6/2/11 39/6/24 38/76/23
f 12/4/25 11/51/26 106/139/27 105/35/28
f 11/51/26 10/50/29 107/140/30 106/139/27
f 10/50/29 21/3/18 108/22/31 107/140/30
f 15/5/32 14/54/33 49/86/34 48/30/35
f 14/54/36 13/52/37 50/88/38 49/86/39
f 13/53/37 12/4/25 51/10/40 50/87/38
f 18/28/14 17/56/41 28/66/42 27/29/43
f 17/56/41 16/55/44 29/67/45 28/66/42
f 16/55/44 15/5/32 30/8/46 29/67/45
f 24/7/47 23/62/48 67/102/49 66/31/50
f 23/62/48 22/60/51 68/104/52 67/102/49
f 22/61/51 33/32/53 69/16/54 68/103/52
f 27/29/43 26/65/55 40/77/56 39/6/24
f 26/65/55 25/63/57 41/79/58 40/77/56
f 25/64/59 24/7/47 42/9/60 41/78/61
f 33/32/53 32/69/62 55/92/63 54/33/64
f 32/70/62 31/68/65 56/93/66 55/91/63
f 31/68/65 30/8/46 57/11/67 56/93/66
f 36/37/21 35/72/68 76/112/69 75/38/70
f 35/73/68 34/71/71 77/113/72 76/111/69
f 34/71/73 42/9/60 78/14/74 77/113/75
f 45/12/76 44/81/77 115/148/78 114/21/79
f 44/82/77 43/80/80 116/149/81 115/147/78
f 43/80/80 51/10/40 117/25/82 116/149/81
f 48/30/35 47/85/83 58/94/84 57/11/67
f 47/85/85 46/83/86 59/96/87 58/94/84
f 46/84/86 45/12/76 60/13/88 59/95/87
f 54/33/64 53/90/89 88/123/90 87/17/91
f 53/90/89 52/89/92 89/124/93 88/123/90
f 52/89/92 60/13/88 90/20/94 89/124/93
f 63/15/95 62/98/96 100/134/97 111/24/98
f 62/98/96 61/97/99 101/135/100 100/134/97
f 61/97/99 72/39/101 102/26/102 101/135/100
f 66/31/50 65/101/103 79/114/104 78/14/74
f 65/101/105 64/99/106 80/116/107 79/114/108
f 64/100/106 63/15/95 81/19/109 80/115/107
f 72/39/101 71/106/110 85/121/111 84/40/112
f 71/107/110 70/105/113 86/122/114 85/120/111
f 70/105/113 69/16/54 87/17/91 86/122/114
f 75/38/70 74/110/115 91/125/116 99/18/10
f 74/110/117 73/108/118 92/127/119 91/125/120
f 73/109/118 81/19/109 93/23/121 92/126/119
f 84/40/112 83/118/122 112/145/123 120/27/124
f 83/119/122 82/117/125 113/146/126 112/144/127
f 82/117/125 90/20/94 114/21/79 113/146/126
f 96/34/4 95/130/128 109/141/129 108/22/31
f 95/130/128 94/128/130 110/143/131 109/141/129
f 94/129/130 93/23/121 111/24/98 110/142/131
f 105/35/28 104/138/132 118/150/133 117/25/82
f 104/138/132 103/136/134 119/152/135 118/150/133
f 103/137/134 102/26/102 120/27/124 119/151/135
f 6/2/11 18/28/14 27/29/43 39/6/24
f 15/5/32 48/30/35 57/11/67 30/8/46
f 42/9/60 24/7/47 66/31/50 78/14/74
f 33/32/53 54/33/64 87/17/91 69/16/54
f 96/34/4 108/22/31 21/3/18 3/1/1
f 105/35/28 117/25/82 51/10/40 12/4/25
f 45/12/76 114/21/79 90/20/94 60/13/88
f 99/18/10 9/36/9 36/37/21 75/38/70
f 81/19/109 63/15/95 111/24/98 93/23/121
f 72/39/101 84/40/112 120/27/124 102/26/102
f 8/48/19 9/36/9 1/42/6 121/154/136
f 121/155/137 1/41/6 2/43/5 122/157/138
f 2/43/2 3/1/1 4/45/16 122/157/139
f 122/156/138 4/44/16 5/46/15 123/158/140
f 5/46/12 6/2/11 7/47/22 123/158/141
f 123/158/140 7/47/22 8/49/19 121/153/137
f 121/153/137 122/156/138 123/158/140
f 20/58/17 21/3/18 10/50/29 124/160/142
f 124/160/142 10/50/29 11/51/26 125/162/143
f 11/51/26 12/4/25 13/53/37 125/162/143
f 125/161/143 13/52/37 14/54/36 126/163/144
f 14/54/33 15/5/32 16/55/44 126/163/145
f 126/163/145 16/55/44 17/56/41 127/164/146
f 17/56/41 18/28/14 19/57/13 127/164/146
f 127/164/146 19/57/13 20/59/17 124/159/142
f 124/159/142 125/161/143 126/163/144 127/164/146
f 32/69/62 33/32/53 22/61/51 128/166/147
f 128/167/147 22/60/51 23/62/48 129/169/148
f 23/62/48 24/7/47 25/64/59 129/169/148
f 129/168/149 25/63/57 26/65/55 130/170/150
f 26/65/55 27/29/43 28/66/42 130/170/150
f 130/170/150 28/66/42 29/67/45 131/171/151
f 29/67/45 30/8/46 31/68/65 131/171/151
f 131/171/151 31/68/65 32/70/62 128/165/152
f 128/165/152 129/168/149 130/170/150 131/171/151
f 41/78/61 42/9/60 34/71/73 132/173/153
f 132/173/154 34/71/71 35/73/68 133/175/155
f 35/72/68 36/37/21 37/75/20 133/176/156
f 133/174/155 37/74/20 38/76/23 134/177/157
f 38/76/23 39/6/24 40/77/56 134/177/158
f 134/177/157 40/77/56 41/79/58 132/172/154
f 132/172/154 133/174/155 134/177/157
f 50/87/38 51/10/40 43/80/80 135/179/159
f 135/179/160 43/80/80 44/82/77 136/181/161
f 44/81/77 45/12/76 46/84/86 136/182/162
f 136/180/161 46/83/86 47/85/85 137/183/163
f 47/85/83 48/30/35 49/86/34 137/183/164
f 137/183/163 49/86/39 50/88/38 135/178/160
f 135/178/160 136/180/161 137/183/163
f 59/95/87 60/13/88 52/89/92 138/185/165
f 138/185/165 52/89/92 53/90/89 139/187/166
f 53/90/89 54/33/64 55/92/63 139/187/166
f 139/186/166 55/91/63 56/93/66 140/188/167
f 56/93/66 57/11/67 58/94/84 140/188/167
f 140/188/167 58/94/84 59/96/87 138/184/165
f 138/184/165 139/186/166 140/188/167
f 71/106/110 72/39/101 61/97/99 141/191/168
f 141/191/168 61/97/99 62/98/96 142/193/169
f 62/98/96 63/15/95 64/100/106 142/193/169
f 142/192/169 64/99/106 65/101/105 143/194/170
f 65/101/103 66/31/50 67/102/49 143/194/171
f 143/194/171 67/102/49 68/104/52 144/196/172
f 68/103/52 69/16/54 70/105/113 144/195/172
f 144/195/173 70/105/113 71/107/110 141/190/168
f 141/189/168 142/192/169 143/194/170 144/196/173
f 80/115/107 81/19/109 73/109/118 145/198/174
f 145/199/175 73/108/118 74/110/117 146/201/176
f 74/110/115 75/38/70 76/112/69 146/201/177
f 146/200/176 76/111/69 77/113/72 147/202/178
f 77/113/75 78/14/74 79/114/104 147/202/179
f 147/202/178 79/114/108 80/116/107 145/197/175
f 145/197/175 146/200/176 147/202/178
f 89/124/93 90/20/94 82/117/125 148/203/180
f 148/203/180 82/117/125 83/119/122 149/204/181
f 83/118/122 84/40/112 85/121/111 149/205/181
f 149/204/181 85/120/111 86/122/114 150/206/182
f 86/122/114 87/17/91 88/123/90 150/206/182
f 150/206/182 88/123/90 89/124/93 148/203/180
f 148/203/180 149/204/181 150/206/182
f 98/132/7 99/18/10 91/125/116 151/208/183
f 151/208/184 91/125/120 92/127/119 152/210/185
f 92/126/119 93/23/121 94/129/130 152/211/186
f 152/209/185 94/128/130 95/130/128 153/212/187
f 95/130/128 96/34/4 97/131/3 153/212/188
f 153/212/187 97/131/8 98/133/7 151/207/184
f 151/207/184 152/209/185 153/212/187
f 110/142/131 111/24/98 100/134/97 154/214/189
f 154/214/189 100/134/97 101/135/100 155/216/190
f 101/135/100 102/26/102 103/137/134 155/216/190
f 155/215/190 103/136/134 104/138/132 156/217/191
f 104/138/132 105/35/28 106/139/27 156/217/191
f 156/217/191 106/139/27 107/140/30 157/218/192
f 107/140/30 108/22/31 109/141/129 157/218/192
f 157/218/192 109/141/129 110/143/131 154/213/189
f 154/213/189 155/215/190 156/217/191 157/218/192
f 119/151/135 120/27/124 112/145/123 158/220/193
f 158/221/194 112/144/127 113/146/126 159/223/195
f 113/146/126 114/21/79 115/148/78 159/223/196
f 159/222/195 115/147/78 116/149/81 160/224/197
f 116/149/81 117/25/82 118/150/133 160/224/198
f 160/224/197 118/150/133 119/152/135 158/219/194
f 158/219/194 159/222/195 160/224/197
